RecursiveMono-CasualAItalic.ufo
<glyph name="percent" format="1">
  <advance width="600"/>
  <unicode hex="0025"/>
  <outline>
    <contour>
      <point x="150" y="670" type="curve"/>
      <point x="244.0" y="670.0"/>
      <point x="289.0" y="637.0"/>
      <point x="289" y="540" type="curve" smooth="yes"/>
      <point x="289" y="534.0" type="line" smooth="yes"/>
      <point x="289" y="457"/>
      <point x="250.0" y="409.0"/>
      <point x="171" y="409" type="curve" smooth="yes"/>
      <point x="135" y="409.0"/>
      <point x="115.0" y="419.0"/>
      <point x="89" y="446" type="curve"/>
      <point x="45" y="402"/>
      <point x="131.0" y="356.0"/>
      <point x="180.0" y="356.0" type="curve" smooth="yes"/>
      <point x="277.0" y="356.0"/>
      <point x="339.0" y="422.0"/>
      <point x="339.0" y="526.0" type="curve" smooth="yes"/>
      <point x="339.0" y="532.0" type="line" smooth="yes"/>
      <point x="339.0" y="639.0"/>
      <point x="278.0" y="710.0"/>
      <point x="187.0" y="710.0" type="curve" smooth="yes"/>
      <point x="166.0" y="710.0"/>
      <point x="150.0" y="692.0"/>
    </contour>
    <contour>
      <point x="210.0" y="396.0" type="curve"/>
      <point x="129.0" y="396.0"/>
      <point x="80.0" y="447.0"/>
      <point x="80.0" y="519.0" type="curve" smooth="yes"/>
      <point x="80.0" y="525.0" type="line" smooth="yes"/>
      <point x="80.0" y="606.0"/>
      <point x="125.0" y="661.0"/>
      <point x="192.0" y="661.0" type="curve" smooth="yes"/>
      <point x="225.0" y="661.0"/>
      <point x="247.0" y="657.0"/>
      <point x="274.0" y="632.0" type="curve"/>
      <point x="302.0" y="660.0"/>
      <point x="239.0" y="710.0"/>
      <point x="187.0" y="710.0" type="curve" smooth="yes"/>
      <point x="93.0" y="710.0"/>
      <point x="30.0" y="637.0"/>
      <point x="30.0" y="529.0" type="curve" smooth="yes"/>
      <point x="30.0" y="523.0" type="line" smooth="yes"/>
      <point x="30.0" y="420.0"/>
      <point x="87.0" y="356.0"/>
      <point x="180.0" y="356.0" type="curve" smooth="yes"/>
      <point x="195.0" y="356.0"/>
      <point x="210.0" y="378.0"/>
    </contour>
    <contour>
      <point x="381" y="304" type="curve"/>
      <point x="475.0" y="304.0"/>
      <point x="520.0" y="271.0"/>
      <point x="520" y="174" type="curve" smooth="yes"/>
      <point x="520" y="168.0" type="line" smooth="yes"/>
      <point x="520" y="91"/>
      <point x="481.0" y="43.0"/>
      <point x="402" y="43" type="curve" smooth="yes"/>
      <point x="366" y="43.0"/>
      <point x="346.0" y="53.0"/>
      <point x="320" y="80" type="curve"/>
      <point x="276" y="36"/>
      <point x="362.0" y="-10.0"/>
      <point x="411.0" y="-10.0" type="curve" smooth="yes"/>
      <point x="508.0" y="-10.0"/>
      <point x="570.0" y="56.0"/>
      <point x="570.0" y="160.0" type="curve" smooth="yes"/>
      <point x="570.0" y="166.0" type="line" smooth="yes"/>
      <point x="570.0" y="273.0"/>
      <point x="509.0" y="344.0"/>
      <point x="418.0" y="344.0" type="curve" smooth="yes"/>
      <point x="397.0" y="344.0"/>
      <point x="381.0" y="326.0"/>
    </contour>
    <contour>
      <point x="441.0" y="30.0" type="curve"/>
      <point x="360.0" y="30.0"/>
      <point x="311.0" y="81.0"/>
      <point x="311.0" y="153.0" type="curve" smooth="yes"/>
      <point x="311.0" y="159.0" type="line" smooth="yes"/>
      <point x="311.0" y="240.0"/>
      <point x="356.0" y="295.0"/>
      <point x="423.0" y="295.0" type="curve" smooth="yes"/>
      <point x="456.0" y="295.0"/>
      <point x="478.0" y="291.0"/>
      <point x="505.0" y="266.0" type="curve"/>
      <point x="533.0" y="294.0"/>
      <point x="470.0" y="344.0"/>
      <point x="418.0" y="344.0" type="curve" smooth="yes"/>
      <point x="324.0" y="344.0"/>
      <point x="261.0" y="271.0"/>
      <point x="261.0" y="163.0" type="curve" smooth="yes"/>
      <point x="261.0" y="157.0" type="line" smooth="yes"/>
      <point x="261.0" y="54.0"/>
      <point x="318.0" y="-10.0"/>
      <point x="411.0" y="-10.0" type="curve" smooth="yes"/>
      <point x="426.0" y="-10.0"/>
      <point x="441.0" y="12.0"/>
    </contour>
    <component base="fraction"/>
  </outline>
</glyph>
<glyph name="ampersand" format="1">
  <advance width="600"/>
  <unicode hex="0026"/>
  <outline>
    <contour>
      <point x="315" y="710" type="curve" smooth="yes"/>
      <point x="203" y="710.0"/>
      <point x="122.0" y="646.0"/>
      <point x="122" y="542" type="curve" smooth="yes"/>
      <point x="122.0" y="520"/>
      <point x="134.0" y="483.0"/>
      <point x="167" y="483" type="curve"/>
      <point x="164.0" y="497.0"/>
      <point x="164.0" y="506.0"/>
      <point x="164.0" y="522" type="curve" smooth="yes"/>
      <point x="164.0" y="594.0"/>
      <point x="220.25" y="659.0"/>
      <point x="314" y="659" type="curve" smooth="yes"/>
      <point x="383" y="659.0"/>
      <point x="424" y="641"/>
      <point x="451" y="615" type="curve"/>
      <point x="455" y="615" type="line"/>
      <point x="457.0" y="622"/>
      <point x="458.0" y="628"/>
      <point x="458" y="636" type="curve"/>
      <point x="458.0" y="654.4285714285714"/>
      <point x="456" y="669"/>
      <point x="446" y="679" type="curve" smooth="yes"/>
      <point x="429.0" y="696.0"/>
      <point x="385.0" y="710.0"/>
    </contour>
    <contour>
      <point x="230" y="353" type="curve" smooth="yes"/>
      <point x="192.5254545248132" y="422.8849631834565"/>
      <point x="172.0" y="490.22527472527474"/>
      <point x="172.0" y="538" type="curve" smooth="yes"/>
      <point x="172.0" y="568.8965517241379"/>
      <point x="177.4821681422169" y="590.8120726605758"/>
      <point x="196" y="622" type="curve"/>
      <point x="158.0" y="636.0"/>
      <point x="122.0" y="588.0"/>
      <point x="122" y="542" type="curve" smooth="yes"/>
      <point x="122.0" y="539" type="line" smooth="yes"/>
      <point x="122.0" y="478"/>
      <point x="147" y="408"/>
      <point x="183" y="338" type="curve" smooth="yes"/>
      <point x="235" y="236"/>
      <point x="313" y="134"/>
      <point x="384" y="64" type="curve" smooth="yes"/>
      <point x="432.5498397153456" y="14.438705290584664"/>
      <point x="472.0" y="-10"/>
      <point x="516" y="-10.0" type="curve" smooth="yes"/>
      <point x="519" y="-10" type="line" smooth="yes"/>
      <point x="552.84" y="-10.0"/>
      <point x="566.0" y="8.0"/>
      <point x="566" y="32" type="curve" smooth="yes"/>
      <point x="566.0" y="42"/>
      <point x="565.0" y="52"/>
      <point x="563" y="60" type="curve"/>
      <point x="559" y="60" type="line"/>
      <point x="550.0" y="46.0"/>
      <point x="537" y="40"/>
      <point x="517" y="40" type="curve" smooth="yes"/>
      <point x="491.0" y="40"/>
      <point x="455" y="64"/>
      <point x="418" y="101" type="curve" smooth="yes"/>
      <point x="341" y="178"/>
      <point x="274" y="269"/>
    </contour>
    <contour>
      <point x="215" y="-10.0" type="curve" smooth="yes"/>
      <point x="302.0" y="-10.0"/>
      <point x="354.78903353306316" y="21.73629191632893"/>
      <point x="391" y="67" type="curve" smooth="yes"/>
      <point x="397.79083749225043" y="75.73107677575054"/>
      <point x="386.72641011526895" y="94.5029825527107"/>
      <point x="367" y="108" type="curve"/>
      <point x="327.2430956141435" y="59.06842537125351"/>
      <point x="287.0" y="38.0"/>
      <point x="216" y="38" type="curve" smooth="yes"/>
      <point x="135.0" y="38.0"/>
      <point x="92" y="94.0"/>
      <point x="92" y="163" type="curve" smooth="yes"/>
      <point x="92.0" y="166" type="line" smooth="yes"/>
      <point x="92.0" y="249.1830065359477"/>
      <point x="147.28992099537905" y="290.0744391744892"/>
      <point x="221" y="309" type="curve"/>
      <point x="220" y="321"/>
      <point x="210" y="354"/>
      <point x="186" y="348" type="curve" smooth="yes"/>
      <point x="122.28514554967634" y="328.0891079842739"/>
      <point x="42.0" y="275.8974358974359"/>
      <point x="42.0" y="163" type="curve" smooth="yes"/>
      <point x="42" y="160" type="line" smooth="yes"/>
      <point x="42" y="63.0"/>
      <point x="100" y="-10"/>
    </contour>
    <contour>
      <point x="451" y="378" type="curve" smooth="yes"/>
      <point x="449" y="378"/>
      <point x="447.0" y="378.0"/>
      <point x="445" y="378" type="curve"/>
      <point x="445" y="367"/>
      <point x="445" y="357"/>
      <point x="445" y="346" type="curve" smooth="yes"/>
      <point x="445.0" y="255.0"/>
      <point x="426" y="192"/>
      <point x="380" y="125" type="curve" smooth="yes"/>
      <point x="371" y="112"/>
      <point x="395.0843193542795" y="94.95502967771759"/>
      <point x="410" y="87" type="curve"/>
      <point x="472.0" y="177.0"/>
      <point x="495.0" y="257.0"/>
      <point x="495.0" y="339" type="curve" smooth="yes"/>
      <point x="495" y="352" type="line" smooth="yes"/>
      <point x="495.0" y="372.0"/>
      <point x="484.0" y="378.0"/>
    </contour>
  </outline>
</glyph>
<glyph name="parenleft" format="1">
  <advance width="400"/>
  <unicode hex="0028"/>
  <outline>
    <contour>
      <point x="326" y="756.0" type="curve" smooth="yes"/>
      <point x="208.0264020955999" y="638.0264020955999"/>
      <point x="142" y="483.0"/>
      <point x="142" y="301.0" type="curve" smooth="yes"/>
      <point x="142" y="297.0" type="line" smooth="yes"/>
      <point x="142" y="115.0"/>
      <point x="208.0264020955999" y="-40.02640209559989"/>
      <point x="326" y="-158.0" type="curve" smooth="yes"/>
      <point x="336" y="-168.0"/>
      <point x="344" y="-172.0"/>
      <point x="355" y="-172.0" type="curve" smooth="yes"/>
      <point x="371.65" y="-172.0"/>
      <point x="382.54567870355197" y="-166.6725927778688"/>
      <point x="392" y="-161.0" type="curve"/>
      <point x="392" y="-157.0" type="line"/>
      <point x="255.0" y="-28.0"/>
      <point x="193" y="122.0"/>
      <point x="193" y="297.0" type="curve" smooth="yes"/>
      <point x="193" y="301.0" type="line" smooth="yes"/>
      <point x="193" y="475.0"/>
      <point x="255.0" y="626.0"/>
      <point x="392" y="755.0" type="curve"/>
      <point x="392" y="759.0" type="line"/>
      <point x="382.54567870355197" y="764.6725927778688"/>
      <point x="371.65" y="770.0"/>
      <point x="355" y="770.0" type="curve" smooth="yes"/>
      <point x="344" y="770.0"/>
      <point x="336" y="766.0"/>
    </contour>
  </outline>
</glyph>
<glyph name="five" format="1">
  <advance width="598"/>
  <unicode hex="0035"/>
  <outline>
    <contour>
      <point x="113" y="700" type="line"/>
      <point x="113.0" y="697.0"/>
      <point x="113.0" y="693.0"/>
      <point x="113" y="690" type="curve" smooth="yes"/>
      <point x="113" y="674"/>
      <point x="116" y="663"/>
      <point x="124" y="655" type="curve" smooth="yes"/>
      <point x="127" y="652"/>
      <point x="131.0" y="650.0"/>
      <point x="136" y="650" type="curve" smooth="yes"/>
      <point x="499" y="650" type="line"/>
      <point x="499.0" y="653.0"/>
      <point x="499.0" y="657.0"/>
      <point x="499" y="660" type="curve" smooth="yes"/>
      <point x="499" y="682"/>
      <point x="494" y="700"/>
      <point x="476" y="700" type="curve" smooth="yes"/>
    </contour>
    <contour>
      <point x="142" y="310" type="line"/>
      <point x="213" y="670" type="line" smooth="yes"/>
      <point x="217" y="690"/>
      <point x="204" y="700"/>
      <point x="180" y="700" type="curve" smooth="yes"/>
      <point x="170" y="700" type="line"/>
      <point x="99" y="336" type="line" smooth="yes"/>
      <point x="95" y="313"/>
      <point x="113" y="310"/>
      <point x="132" y="310" type="curve" smooth="yes"/>
    </contour>
    <contour>
      <point x="115" y="359" type="curve"/>
      <point x="115.0" y="331.0"/>
      <point x="122.0" y="310.0"/>
      <point x="142" y="310" type="curve"/>
      <point x="144.0" y="310.0"/>
      <point x="146" y="310.0"/>
      <point x="149" y="310.0" type="curve" smooth="yes"/>
      <point x="347.0" y="310.0"/>
      <point x="478.0" y="280.0"/>
      <point x="478" y="162" type="curve" smooth="yes"/>
      <point x="478.0" y="145.0"/>
      <point x="477.0" y="134.0"/>
      <point x="475" y="121" type="curve"/>
      <point x="496.0" y="121.0"/>
      <point x="522.0" y="143.0"/>
      <point x="522" y="179" type="curve" smooth="yes"/>
      <point x="522.0" y="302.0"/>
      <point x="398.0" y="359.0"/>
      <point x="157" y="359.0" type="curve" smooth="yes"/>
      <point x="143.0" y="359.0"/>
      <point x="129" y="359"/>
    </contour>
    <contour>
      <point x="298" y="-20" type="curve" smooth="yes"/>
      <point x="434" y="-20"/>
      <point x="522" y="51"/>
      <point x="522" y="173" type="curve" smooth="yes"/>
      <point x="522" y="179" type="line" smooth="yes"/>
      <point x="522" y="213.0"/>
      <point x="495.0" y="229.0"/>
      <point x="479" y="231" type="curve"/>
      <point x="479.0" y="224.0"/>
      <point x="479.0" y="215.0"/>
      <point x="479.0" y="206" type="curve" smooth="yes"/>
      <point x="479.0" y="200" type="line" smooth="yes"/>
      <point x="479.0" y="95.0"/>
      <point x="424.0" y="30.0"/>
      <point x="298" y="30" type="curve" smooth="yes"/>
      <point x="195.0" y="30.0"/>
      <point x="133.0" y="65.0"/>
      <point x="83" y="135" type="curve"/>
      <point x="79" y="135" type="line"/>
      <point x="76.0" y="125.0"/>
      <point x="75.0" y="116.0"/>
      <point x="75" y="106" type="curve" smooth="yes"/>
      <point x="75" y="86"/>
      <point x="78" y="67"/>
      <point x="94" y="51" type="curve" smooth="yes"/>
      <point x="137" y="8"/>
      <point x="206" y="-20"/>
    </contour>
  </outline>
</glyph>
<glyph name="less" format="1">
  <advance width="600"/>
  <unicode hex="003C"/>
  <outline>
    <contour>
      <point x="522" y="511" type="curve"/>
      <point x="522" y="521" type="line"/>
      <point x="522.0" y="547.0"/>
      <point x="511" y="558"/>
      <point x="500" y="558" type="curve" smooth="yes"/>
      <point x="487.0" y="558.0"/>
      <point x="453.0" y="550.0"/>
      <point x="406" y="534" type="curve" smooth="yes"/>
      <point x="254" y="481"/>
      <point x="158" y="419"/>
      <point x="70" y="325" type="curve"/>
      <point x="70" y="293" type="line"/>
      <point x="70" y="284"/>
      <point x="86" y="275"/>
      <point x="102" y="290" type="curve"/>
      <point x="230" y="408"/>
      <point x="303" y="457"/>
    </contour>
    <contour>
      <point x="519" y="37" type="curve"/>
      <point x="521" y="43"/>
      <point x="522" y="49"/>
      <point x="522" y="56" type="curve" smooth="yes"/>
      <point x="522" y="73"/>
      <point x="516" y="88"/>
      <point x="503" y="92" type="curve" smooth="yes"/>
      <point x="305" y="147"/>
      <point x="241" y="188"/>
      <point x="112" y="301" type="curve" smooth="yes"/>
      <point x="105" y="307"/>
      <point x="102" y="313"/>
      <point x="102" y="319" type="curve" smooth="yes"/>
      <point x="102" y="322"/>
      <point x="102" y="329"/>
      <point x="102" y="339" type="curve"/>
      <point x="82" y="328"/>
      <point x="70" y="315"/>
      <point x="70" y="298" type="curve"/>
      <point x="70" y="285" type="line"/>
      <point x="70" y="272"/>
      <point x="79" y="259"/>
      <point x="100" y="243" type="curve" smooth="yes"/>
      <point x="211" y="152"/>
      <point x="297" y="87"/>
    </contour>
  </outline>
</glyph>
<glyph name="at" format="1">
  <advance width="600"/>
  <unicode hex="0040"/>
  <outline>
    <contour>
      <point x="491" y="511" type="curve" smooth="yes"/>
      <point x="476" y="526"/>
      <point x="445" y="536"/>
      <point x="396" y="536.0" type="curve" smooth="yes"/>
      <point x="363.0" y="536.0"/>
      <point x="333.0" y="525.0"/>
      <point x="310" y="502" type="curve" smooth="yes"/>
      <point x="297" y="489"/>
      <point x="296" y="464"/>
      <point x="307" y="453" type="curve"/>
      <point x="339" y="478"/>
      <point x="364" y="489.0"/>
      <point x="398" y="489.0" type="curve" smooth="yes"/>
      <point x="442" y="489.0"/>
      <point x="462" y="483"/>
      <point x="489" y="462" type="curve"/>
      <point x="501" y="491"/>
      <point x="497" y="505"/>
    </contour>
    <contour>
      <point x="495" y="145" type="curve"/>
      <point x="454" y="87"/>
      <point x="401.0" y="60.0"/>
      <point x="362" y="60.0" type="curve" smooth="yes"/>
      <point x="315.0" y="60.0"/>
      <point x="288.0" y="87.61643835616438"/>
      <point x="288.0" y="186.0" type="curve" smooth="yes"/>
      <point x="288" y="190" type="line" smooth="yes"/>
      <point x="288.0" y="371.0"/>
      <point x="299" y="421"/>
      <point x="359" y="502" type="curve"/>
      <point x="339" y="509"/>
      <point x="314" y="506"/>
      <point x="310" y="502" type="curve" smooth="yes"/>
      <point x="259" y="451"/>
      <point x="236" y="352.0"/>
      <point x="236" y="192" type="curve" smooth="yes"/>
      <point x="236" y="187" type="line" smooth="yes"/>
      <point x="236.0" y="71.09644670050763"/>
      <point x="278.0" y="10.0"/>
      <point x="359" y="10.0" type="curve" smooth="yes"/>
      <point x="395" y="10.0"/>
      <point x="434" y="22"/>
      <point x="489" y="77" type="curve" smooth="yes"/>
      <point x="501.0" y="89.0"/>
      <point x="504" y="117"/>
    </contour>
    <contour>
      <point x="538" y="17" type="line"/>
      <point x="528" y="47"/>
      <point x="527.0" y="57.0"/>
      <point x="527" y="104" type="curve"/>
      <point x="527" y="516" type="line" smooth="yes"/>
      <point x="527" y="687"/>
      <point x="470.0" y="760.0"/>
      <point x="346" y="760" type="curve" smooth="yes"/>
      <point x="326.0" y="760.0"/>
      <point x="327.0" y="742.0"/>
      <point x="327" y="727" type="curve"/>
      <point x="456.0" y="711.0"/>
      <point x="477" y="663.0"/>
      <point x="477" y="501" type="curve" smooth="yes"/>
      <point x="477" y="64" type="line" smooth="yes"/>
      <point x="477.0" y="30.0"/>
      <point x="500" y="17"/>
      <point x="532" y="17" type="curve" smooth="yes"/>
    </contour>
    <contour>
      <point x="62" y="194" type="curve" smooth="yes"/>
      <point x="62" y="188" type="line" smooth="yes"/>
      <point x="62" y="44.0"/>
      <point x="82.0" y="-68.0"/>
      <point x="144" y="-130" type="curve" smooth="yes"/>
      <point x="171" y="-157"/>
      <point x="191" y="-150"/>
      <point x="208" y="-133" type="curve"/>
      <point x="120" y="-36.0"/>
      <point x="112" y="24.0"/>
      <point x="112" y="182" type="curve" smooth="yes"/>
      <point x="112" y="191" type="line" smooth="yes"/>
      <point x="112" y="533"/>
      <point x="214.0" y="710.0"/>
      <point x="342" y="710" type="curve" smooth="yes"/>
      <point x="392.1333333333333" y="710.0"/>
      <point x="427" y="698"/>
      <point x="465" y="666" type="curve"/>
      <point x="472" y="674"/>
      <point x="474" y="680"/>
      <point x="474" y="687" type="curve" smooth="yes"/>
      <point x="474.0" y="717.0"/>
      <point x="404.9919354838709" y="760.0"/>
      <point x="346" y="760" type="curve" smooth="yes"/>
      <point x="160.65263157894736" y="760.0"/>
      <point x="62" y="538.0"/>
    </contour>
    <contour>
      <point x="326" y="-190.0" type="curve" smooth="yes"/>
      <point x="388.0" y="-190.0"/>
      <point x="447.0" y="-179.0"/>
      <point x="463" y="-163" type="curve" smooth="yes"/>
      <point x="473" y="-153"/>
      <point x="478.0" y="-137.0"/>
      <point x="478" y="-120" type="curve" smooth="yes"/>
      <point x="478" y="-112" type="line"/>
      <point x="474" y="-112" type="line"/>
      <point x="428" y="-134"/>
      <point x="386" y="-140"/>
      <point x="328" y="-140" type="curve" smooth="yes"/>
      <point x="248.0" y="-140.0"/>
      <point x="184.0" y="-119.0"/>
      <point x="133" y="-57" type="curve"/>
      <point x="125" y="-79"/>
      <point x="128" y="-114"/>
      <point x="144" y="-130" type="curve"/>
      <point x="186.0" y="-172.0"/>
      <point x="244.0" y="-190"/>
    </contour>
  </outline>
</glyph>
<glyph name="G" format="1">
  <advance width="650"/>
  <unicode hex="0047"/>
  <outline>
    <contour>
      <point x="386" y="670" type="curve" smooth="yes"/>
      <point x="491" y="670"/>
      <point x="520" y="629"/>
      <point x="520" y="564" type="curve"/>
      <point x="536" y="564"/>
      <point x="545.0" y="581"/>
      <point x="545" y="590" type="curve" smooth="yes"/>
      <point x="545.0" y="623"/>
      <point x="535" y="654"/>
      <point x="512" y="677" type="curve" smooth="yes"/>
      <point x="486" y="703"/>
      <point x="444" y="720"/>
      <point x="386" y="720" type="curve" smooth="yes"/>
      <point x="199" y="720"/>
      <point x="75" y="532"/>
      <point x="75" y="251" type="curve" smooth="yes"/>
      <point x="75" y="224" type="line" smooth="yes"/>
      <point x="75.0" y="181"/>
      <point x="111" y="117"/>
      <point x="145" y="100" type="curve"/>
      <point x="133.0" y="139.0"/>
      <point x="127" y="181.0"/>
      <point x="127" y="226" type="curve" smooth="yes"/>
      <point x="127" y="250" type="line" smooth="yes"/>
      <point x="127" y="497"/>
      <point x="233" y="670"/>
    </contour>
    <contour>
      <point x="321" y="30" type="curve" smooth="yes"/>
      <point x="196" y="30"/>
      <point x="118.0" y="127.0"/>
      <point x="118" y="282" type="curve"/>
      <point x="94" y="282"/>
      <point x="75.0" y="257"/>
      <point x="75" y="224" type="curve" smooth="yes"/>
      <point x="75.0" y="83"/>
      <point x="179" y="-20"/>
      <point x="321" y="-20" type="curve" smooth="yes"/>
      <point x="459" y="-20"/>
      <point x="553" y="65"/>
      <point x="553" y="189" type="curve" smooth="yes"/>
      <point x="553" y="195" type="line" smooth="yes"/>
      <point x="553" y="248"/>
      <point x="537" y="279"/>
      <point x="494" y="279" type="curve"/>
      <point x="500" y="256"/>
      <point x="503" y="229"/>
      <point x="503" y="196" type="curve" smooth="yes"/>
      <point x="503.0" y="98.0"/>
      <point x="429" y="30"/>
    </contour>
    <contour>
      <point x="313" y="300" type="line"/>
      <point x="311" y="297"/>
      <point x="310" y="291"/>
      <point x="310" y="285" type="curve" smooth="yes"/>
      <point x="310" y="273"/>
      <point x="313" y="263"/>
      <point x="320" y="256" type="curve" smooth="yes"/>
      <point x="324" y="252"/>
      <point x="330" y="250"/>
      <point x="335" y="250" type="curve"/>
      <point x="600" y="250" type="line"/>
      <point x="600" y="260" type="line" smooth="yes"/>
      <point x="600" y="287"/>
      <point x="592" y="300"/>
      <point x="577" y="300" type="curve" smooth="yes"/>
    </contour>
    <contour>
      <point x="545" y="479" type="curve"/>
      <point x="545" y="590" type="line" smooth="yes"/>
      <point x="545.0" y="643.0"/>
      <point x="497.0" y="686.0"/>
      <point x="464" y="674" type="curve"/>
      <point x="488" y="644"/>
      <point x="495.0" y="615.0"/>
      <point x="495" y="595" type="curve" smooth="yes"/>
      <point x="495" y="504" type="line" smooth="yes"/>
      <point x="495" y="485"/>
      <point x="505" y="477"/>
      <point x="531" y="477" type="curve" smooth="yes"/>
      <point x="536" y="477"/>
      <point x="541" y="478"/>
    </contour>
    <contour>
      <point x="337" y="711" type="move" name="top"/>
    </contour>
    <contour>
      <point x="337" y="-1" type="move" name="bottom"/>
    </contour>
  </outline>
</glyph>
<glyph name="N" format="1">
  <advance width="700"/>
  <unicode hex="004E"/>
  <outline>
    <contour>
      <point x="150" y="-8" type="curve"/>
      <point x="150" y="650" type="line"/>
      <point x="150.0" y="670.0"/>
      <point x="148.0" y="702.0"/>
      <point x="145" y="705" type="curve" smooth="yes"/>
      <point x="142" y="708"/>
      <point x="139" y="710.0"/>
      <point x="132" y="710" type="curve"/>
      <point x="122" y="710.0"/>
      <point x="110" y="710.0"/>
      <point x="93" y="707" type="curve"/>
      <point x="99.0" y="672"/>
      <point x="100.0" y="622.0"/>
      <point x="100" y="600" type="curve" smooth="yes"/>
      <point x="100" y="13" type="line"/>
      <point x="100.0" y="-5.0"/>
      <point x="118.0" y="-10.0"/>
      <point x="134" y="-10.0" type="curve"/>
      <point x="140.0" y="-10.0"/>
      <point x="146" y="-9.0"/>
    </contour>
    <contour>
      <point x="600" y="-10" type="line"/>
      <point x="600" y="687" type="line"/>
      <point x="600.0" y="705.0"/>
      <point x="582.0" y="710.0"/>
      <point x="560" y="710" type="curve"/>
      <point x="550" y="710" type="line"/>
      <point x="550.0" y="63" type="line"/>
      <point x="550.0" y="47.0"/>
      <point x="561.0" y="2.0"/>
      <point x="566" y="-3" type="curve" smooth="yes"/>
      <point x="571" y="-8"/>
      <point x="573.0" y="-10"/>
      <point x="583" y="-10" type="curve"/>
    </contour>
    <contour>
      <point x="132" y="710" type="line"/>
      <point x="136" y="689"/>
      <point x="140" y="675"/>
      <point x="147" y="656" type="curve"/>
      <point x="249" y="362"/>
      <point x="406.0" y="146.0"/>
      <point x="555" y="-3" type="curve"/>
      <point x="560" y="-8"/>
      <point x="567" y="-10.0"/>
      <point x="583" y="-10" type="curve" smooth="yes"/>
      <point x="587" y="-10.0"/>
      <point x="585" y="-10.0"/>
      <point x="589" y="-10" type="curve"/>
      <point x="591.0" y="-10.0"/>
      <point x="594" y="10"/>
      <point x="593" y="24" type="curve"/>
      <point x="389" y="251"/>
      <point x="280" y="421"/>
      <point x="186" y="685" type="curve"/>
      <point x="181" y="698"/>
      <point x="161.0" y="710.0"/>
      <point x="135" y="710" type="curve"/>
    </contour>
    <contour>
      <point x="346" y="711" type="move" name="top"/>
    </contour>
    <contour>
      <point x="346" y="-1" type="move" name="bottom"/>
    </contour>
  </outline>
</glyph>
<glyph name="S" format="1">
  <advance width="600"/>
  <unicode hex="0053"/>
  <outline>
    <contour>
      <point x="378" y="720" type="curve" smooth="yes"/>
      <point x="237" y="720"/>
      <point x="90" y="563"/>
      <point x="90" y="438" type="curve" smooth="yes"/>
      <point x="90" y="428" type="line" smooth="yes"/>
      <point x="90" y="399"/>
      <point x="125" y="381"/>
      <point x="143" y="375" type="curve"/>
      <point x="140" y="397"/>
      <point x="140" y="415"/>
      <point x="140" y="437" type="curve" smooth="yes"/>
      <point x="140" y="541"/>
      <point x="268" y="670"/>
      <point x="378" y="670" type="curve" smooth="yes"/>
      <point x="448.0" y="670.0"/>
      <point x="475.0" y="642.0"/>
      <point x="475" y="573" type="curve"/>
      <point x="491.0" y="573.0"/>
      <point x="500.0" y="587.1538461538461"/>
      <point x="500" y="596" type="curve" smooth="yes"/>
      <point x="500.0" y="628.3516483516484"/>
      <point x="494.3774699150642" y="663.6225300849358"/>
      <point x="470" y="688" type="curve" smooth="yes"/>
      <point x="451.0" y="707.0"/>
      <point x="425" y="720"/>
    </contour>
    <contour>
      <point x="368" y="287" type="curve" smooth="yes"/>
      <point x="283" y="318" type="line" smooth="yes"/>
      <point x="150" y="366"/>
      <point x="140" y="397"/>
      <point x="140" y="437" type="curve" smooth="yes"/>
      <point x="140" y="455"/>
      <point x="140" y="470"/>
      <point x="143" y="496" type="curve"/>
      <point x="119" y="487"/>
      <point x="90" y="468"/>
      <point x="90" y="428" type="curve" smooth="yes"/>
      <point x="90" y="360"/>
      <point x="137" y="319"/>
      <point x="271" y="269" type="curve" smooth="yes"/>
      <point x="357" y="237" type="line" smooth="yes"/>
      <point x="453" y="201"/>
      <point x="482" y="168"/>
      <point x="482" y="107" type="curve" smooth="yes"/>
      <point x="482" y="102"/>
      <point x="482" y="94"/>
      <point x="482" y="89" type="curve"/>
      <point x="498" y="94"/>
      <point x="524" y="127"/>
      <point x="524" y="144" type="curve"/>
      <point x="524" y="205"/>
      <point x="472" y="249"/>
    </contour>
    <contour>
      <point x="300" y="-12" type="curve" smooth="yes"/>
      <point x="433.0" y="-12.0"/>
      <point x="524.0" y="45.0"/>
      <point x="524" y="139" type="curve" smooth="yes"/>
      <point x="524" y="144" type="line" smooth="yes"/>
      <point x="524" y="175"/>
      <point x="501" y="189"/>
      <point x="484" y="191" type="curve"/>
      <point x="484" y="187"/>
      <point x="484" y="181"/>
      <point x="484" y="169" type="curve" smooth="yes"/>
      <point x="484" y="85"/>
      <point x="418" y="38"/>
      <point x="300" y="38" type="curve" smooth="yes"/>
      <point x="198" y="38"/>
      <point x="133" y="64"/>
      <point x="87" y="125" type="curve"/>
      <point x="83" y="125" type="line"/>
      <point x="79" y="113"/>
      <point x="77" y="103"/>
      <point x="77" y="88" type="curve" smooth="yes"/>
      <point x="77" y="72"/>
      <point x="79" y="61"/>
      <point x="92" y="48" type="curve" smooth="yes"/>
      <point x="133" y="7"/>
      <point x="208" y="-12"/>
    </contour>
    <contour>
      <point x="500" y="453" type="curve"/>
      <point x="500" y="596" type="line" smooth="yes"/>
      <point x="500.0" y="684"/>
      <point x="445" y="694"/>
      <point x="426" y="675" type="curve"/>
      <point x="445" y="651"/>
      <point x="450" y="635"/>
      <point x="450" y="594" type="curve" smooth="yes"/>
      <point x="450" y="494" type="line" smooth="yes"/>
      <point x="450" y="478"/>
      <point x="453" y="467"/>
      <point x="461" y="459" type="curve" smooth="yes"/>
      <point x="467" y="453"/>
      <point x="476" y="450"/>
      <point x="486" y="450" type="curve" smooth="yes"/>
      <point x="492" y="450"/>
      <point x="496" y="451"/>
    </contour>
    <contour>
      <point x="350" y="711" type="move" name="top"/>
    </contour>
    <contour>
      <point x="300" y="-1" type="move" name="bottom"/>
    </contour>
  </outline>
</glyph>
<glyph name="U" format="1">
  <advance width="650"/>
  <unicode hex="0055"/>
  <outline>
    <contour>
      <point x="81" y="706" type="curve"/>
      <point x="91" y="671"/>
      <point x="95.0" y="628.0"/>
      <point x="95" y="570" type="curve" smooth="yes"/>
      <point x="95" y="160" type="line"/>
      <point x="95" y="121"/>
      <point x="109" y="100"/>
      <point x="135" y="120" type="curve"/>
      <point x="144.0" y="281"/>
      <point x="150.0" y="387"/>
      <point x="150.0" y="543" type="curve"/>
      <point x="150" y="546" type="line"/>
      <point x="150" y="672"/>
      <point x="128" y="710"/>
      <point x="101" y="710.0" type="curve"/>
      <point x="93.0" y="710.0"/>
      <point x="88" y="709"/>
    </contour>
    <contour>
      <point x="255.0" y="-20.0" type="curve" smooth="yes"/>
      <point x="353.0" y="-20.0"/>
      <point x="426.0" y="24.0"/>
      <point x="503" y="124" type="curve" smooth="yes"/>
      <point x="521" y="149"/>
      <point x="523" y="174"/>
      <point x="521.0" y="202.0" type="curve"/>
      <point x="408" y="68.0"/>
      <point x="347.0" y="30.0"/>
      <point x="263.0" y="30.0" type="curve" smooth="yes"/>
      <point x="183.0" y="30.0"/>
      <point x="143.0" y="78.0"/>
      <point x="134.0" y="195.0" type="curve"/>
      <point x="99.0" y="185.0"/>
      <point x="95" y="172"/>
      <point x="95.0" y="160.0" type="curve" smooth="yes"/>
      <point x="95.0" y="63.0"/>
      <point x="150.0" y="-20"/>
    </contour>
    <contour>
      <point x="557" y="-7" type="curve"/>
      <point x="551.0" y="28"/>
      <point x="550.0" y="63.0"/>
      <point x="550" y="100" type="curve" smooth="yes"/>
      <point x="550" y="687" type="line" smooth="yes"/>
      <point x="550.0" y="705.0"/>
      <point x="532.0" y="710.0"/>
      <point x="510" y="710" type="curve" smooth="yes"/>
      <point x="507.0" y="710.0"/>
      <point x="503" y="710.0"/>
      <point x="500" y="710" type="curve"/>
      <point x="500" y="50" type="line" smooth="yes"/>
      <point x="500.0" y="28.0"/>
      <point x="502" y="10"/>
      <point x="514" y="-2" type="curve" smooth="yes"/>
      <point x="519" y="-7"/>
      <point x="526" y="-10"/>
      <point x="540" y="-10" type="curve" smooth="yes"/>
      <point x="546.0" y="-10.0"/>
      <point x="551" y="-9.0"/>
    </contour>
    <contour>
      <point x="319" y="711" type="move" name="top"/>
    </contour>
    <contour>
      <point x="557" y="-8" type="move" name="ogonek"/>
    </contour>
    <contour>
      <point x="319" y="701" type="move" name="ring"/>
    </contour>
    <contour>
      <point x="319" y="-1" type="move" name="bottom"/>
    </contour>
  </outline>
</glyph>
<glyph name="V" format="1">
  <advance width="650"/>
  <unicode hex="0056"/>
  <outline>
    <contour>
      <point x="73" y="710" type="curve"/>
      <point x="63" y="710" type="line"/>
      <point x="82" y="295"/>
      <point x="135" y="153"/>
      <point x="274" y="14" type="curve"/>
      <point x="290" y="-2"/>
      <point x="303" y="-10"/>
      <point x="321" y="-10" type="curve"/>
      <point x="342.0" y="-10.0"/>
      <point x="356.0" y="1.0"/>
      <point x="364" y="17" type="curve"/>
      <point x="357" y="17"/>
      <point x="353" y="17"/>
      <point x="348" y="17" type="curve" smooth="yes"/>
      <point x="343.0" y="17.0"/>
      <point x="338" y="18"/>
      <point x="335" y="21" type="curve"/>
      <point x="186.82160541885904" y="169.17839458114096"/>
      <point x="132.00424428766675" y="293.9008833997822"/>
      <point x="115" y="691" type="curve"/>
      <point x="114" y="704"/>
      <point x="99" y="710"/>
    </contour>
    <contour>
      <point x="546" y="710" type="curve"/>
      <point x="536" y="710" type="line"/>
      <point x="512" y="297"/>
      <point x="469" y="162.0"/>
      <point x="314" y="22" type="curve"/>
      <point x="303" y="12"/>
      <point x="293" y="-10"/>
      <point x="321" y="-10" type="curve"/>
      <point x="351" y="-10" type="line"/>
      <point x="511.8709293812336" y="130.05233852013276"/>
      <point x="563.9890491729628" y="297.7992348376519"/>
      <point x="585" y="683" type="curve"/>
      <point x="586" y="696"/>
      <point x="572.0" y="710.0"/>
    </contour>
  </outline>
</glyph>
<glyph name="X" format="1">
  <advance width="650"/>
  <unicode hex="0058"/>
  <outline>
    <contour>
      <point x="585" y="-6" type="curve" smooth="yes"/>
      <point x="596.0" y="-6.0"/>
      <point x="608" y="-4"/>
      <point x="617" y="0" type="curve"/>
      <point x="526" y="77"/>
      <point x="423" y="194"/>
      <point x="332" y="314" type="curve" smooth="yes"/>
      <point x="328" y="319"/>
      <point x="324" y="325"/>
      <point x="320" y="330" type="curve" smooth="yes"/>
      <point x="221" y="463"/>
      <point x="137" y="600"/>
      <point x="99" y="693" type="curve" smooth="yes"/>
      <point x="95" y="703"/>
      <point x="78.0" y="706.0"/>
      <point x="48" y="706" type="curve" smooth="yes"/>
      <point x="35" y="706" type="line"/>
      <point x="86" y="580"/>
      <point x="181" y="431"/>
      <point x="280" y="299" type="curve" smooth="yes"/>
      <point x="284" y="293"/>
      <point x="289" y="287"/>
      <point x="293" y="282" type="curve" smooth="yes"/>
      <point x="381" y="167"/>
      <point x="470" y="66"/>
      <point x="534" y="9" type="curve" smooth="yes"/>
      <point x="545" y="-1"/>
      <point x="564" y="-6"/>
    </contour>
    <contour>
      <point x="562" y="706" type="curve" smooth="yes"/>
      <point x="556" y="706" type="line"/>
      <point x="503" y="553"/>
      <point x="431" y="444"/>
      <point x="295" y="321" type="curve"/>
      <point x="275" y="303"/>
      <point x="304" y="287"/>
      <point x="330" y="292" type="curve"/>
      <point x="458.0" y="404.0"/>
      <point x="541.0" y="521.0"/>
      <point x="601" y="685" type="curve"/>
      <point x="603.0" y="690.0"/>
      <point x="603.0" y="694.0"/>
      <point x="601" y="696" type="curve" smooth="yes"/>
      <point x="593" y="704"/>
      <point x="579.0" y="706.0"/>
    </contour>
    <contour>
      <point x="78" y="-6.0" type="curve"/>
      <point x="84" y="-6" type="line"/>
      <point x="139" y="102"/>
      <point x="220" y="201"/>
      <point x="317" y="287" type="curve"/>
      <point x="338" y="306"/>
      <point x="305" y="320"/>
      <point x="278" y="315" type="curve"/>
      <point x="174" y="218"/>
      <point x="93" y="126"/>
      <point x="37" y="19" type="curve" smooth="yes"/>
      <point x="33" y="11"/>
      <point x="34" y="6"/>
      <point x="37" y="3" type="curve" smooth="yes"/>
      <point x="43.0" y="-3.0"/>
      <point x="53.0" y="-6.0"/>
    </contour>
  </outline>
</glyph>
<glyph name="Y" format="1">
  <advance width="600"/>
  <unicode hex="0059"/>
  <outline>
    <contour>
      <point x="41" y="710" type="line"/>
      <point x="87.98807805842684" y="443.0677267744689"/>
      <point x="147.54121890172598" y="359.458781098274"/>
      <point x="275" y="232" type="curve"/>
      <point x="278.2062439083763" y="228.79375609162372"/>
      <point x="286.3333333333333" y="228.0"/>
      <point x="292" y="228" type="curve"/>
      <point x="302.0" y="228.0"/>
      <point x="310" y="244"/>
      <point x="311" y="263" type="curve"/>
      <point x="190" y="384"/>
      <point x="134" y="455"/>
      <point x="93" y="691" type="curve"/>
      <point x="91" y="704"/>
      <point x="77.0" y="710.0"/>
      <point x="51" y="710" type="curve" smooth="yes"/>
    </contour>
    <contour>
      <point x="507" y="710" type="line"/>
      <point x="476.0" y="484.0"/>
      <point x="416" y="386"/>
      <point x="288" y="262" type="curve"/>
      <point x="263" y="238"/>
      <point x="288.0" y="228.0"/>
      <point x="292" y="228" type="curve"/>
      <point x="322" y="228" type="line"/>
      <point x="450.85807198719203" y="356.85807198719203"/>
      <point x="524.6065789038126" y="463.1542540709118"/>
      <point x="555" y="683" type="curve"/>
      <point x="557" y="696"/>
      <point x="543" y="710.0"/>
      <point x="517" y="710" type="curve"/>
    </contour>
    <contour>
      <point x="332" y="-7" type="curve"/>
      <point x="326" y="28"/>
      <point x="325" y="63"/>
      <point x="325" y="100" type="curve" smooth="yes"/>
      <point x="325" y="242" type="line" smooth="yes"/>
      <point x="325.0" y="262.0"/>
      <point x="300.0" y="265.0"/>
      <point x="275" y="265" type="curve"/>
      <point x="275" y="50" type="line" smooth="yes"/>
      <point x="275" y="28"/>
      <point x="277" y="10"/>
      <point x="289" y="-2" type="curve" smooth="yes"/>
      <point x="294" y="-7"/>
      <point x="301" y="-10"/>
      <point x="315" y="-10" type="curve" smooth="yes"/>
      <point x="321" y="-10.0"/>
      <point x="326" y="-9.0"/>
    </contour>
    <contour>
      <point x="300" y="711" type="move" name="top"/>
    </contour>
  </outline>
</glyph>
<glyph name="bracketleft" format="1">
  <advance width="400"/>
  <unicode hex="005B"/>
  <outline>
    <contour>
      <point x="50.5" y="650.0" type="curve" smooth="yes"/>
      <point x="50.5" y="-111.0" type="line" smooth="yes"/>
      <point x="50.5" y="-121.0"/>
      <point x="75.5" y="-122.0"/>
      <point x="100.5" y="-122.0" type="curve"/>
      <point x="100.5" y="720.0" type="line" smooth="yes"/>
      <point x="100.5" y="739.0"/>
      <point x="95.5" y="760.0"/>
      <point x="70.5" y="760.0" type="curve" smooth="yes"/>
      <point x="60.5" y="760.0"/>
      <point x="52.5" y="759.0"/>
      <point x="43.5" y="756.0" type="curve"/>
      <point x="49.5" y="721.0"/>
      <point x="50.5" y="687.0"/>
    </contour>
    <contour>
      <point x="353.5" y="710.0" type="line"/>
      <point x="355.5" y="715.0"/>
      <point x="356.5" y="721.0"/>
      <point x="356.5" y="727.0" type="curve" smooth="yes"/>
      <point x="356.5" y="736.0"/>
      <point x="354.5" y="747.0"/>
      <point x="346.5" y="755.0" type="curve" smooth="yes"/>
      <point x="343.5" y="758.0"/>
      <point x="339.5" y="760.0"/>
      <point x="334.5" y="760.0" type="curve" smooth="yes"/>
      <point x="70.5" y="760.0" type="line"/>
      <point x="70.5" y="735.0"/>
      <point x="75.5" y="710.0"/>
      <point x="133.5" y="710.0" type="curve"/>
    </contour>
    <contour>
      <point x="356.5" y="-161.0" type="line"/>
      <point x="356.5" y="-158.0"/>
      <point x="356.5" y="-154.0"/>
      <point x="356.5" y="-151.0" type="curve" smooth="yes"/>
      <point x="356.5" y="-124.0"/>
      <point x="348.5" y="-111.0"/>
      <point x="333.5" y="-111.0" type="curve" smooth="yes"/>
      <point x="50.5" y="-111.0" type="line"/>
      <point x="50.5" y="-121.0" type="line" smooth="yes"/>
      <point x="50.5" y="-140.0"/>
      <point x="64.5" y="-161.0"/>
      <point x="80.5" y="-161.0" type="curve" smooth="yes"/>
    </contour>
  </outline>
</glyph>
<glyph name="asciicircum" format="1">
  <advance width="600"/>
  <unicode hex="005E"/>
  <outline>
    <contour>
      <point x="118.0" y="376.0" type="line"/>
      <point x="162.0" y="551.0"/>
      <point x="207.0" y="623.0"/>
      <point x="309.0" y="733.0" type="curve"/>
      <point x="318.0" y="742.0"/>
      <point x="312.0" y="752.0"/>
      <point x="298.0" y="760.0" type="curve"/>
      <point x="272.0" y="760.0" type="line"/>
      <point x="192.0" y="685.0"/>
      <point x="139.0" y="604.0"/>
      <point x="94.0" y="474.0" type="curve" smooth="yes"/>
      <point x="81.0" y="434.0"/>
      <point x="74.0" y="406.0"/>
      <point x="74.0" y="395.0" type="curve" smooth="yes"/>
      <point x="74.0" y="385.0"/>
      <point x="84.0" y="376.0"/>
      <point x="109.0" y="376.0" type="curve"/>
    </contour>
    <contour>
      <point x="517.0" y="378.0" type="curve"/>
      <point x="474.0" y="567.0"/>
      <point x="421.0" y="648.0"/>
      <point x="342.0" y="736.0" type="curve" smooth="yes"/>
      <point x="328.0" y="752.0"/>
      <point x="317.0" y="760.0"/>
      <point x="302.0" y="760.0" type="curve" smooth="yes"/>
      <point x="294.0" y="760.0" type="line" smooth="yes"/>
      <point x="279.0" y="760.0"/>
      <point x="269.0" y="750.0"/>
      <point x="260.0" y="733.0" type="curve"/>
      <point x="265.0" y="733.0"/>
      <point x="269.0" y="733.0"/>
      <point x="270.0" y="733.0" type="curve" smooth="yes"/>
      <point x="275.0" y="733.0"/>
      <point x="281.0" y="730.0"/>
      <point x="286.0" y="724.0" type="curve" smooth="yes"/>
      <point x="386.0" y="620.0"/>
      <point x="418.0" y="560.0"/>
      <point x="465.0" y="392.0" type="curve" smooth="yes"/>
      <point x="468.0" y="381.0"/>
      <point x="484.0" y="376.0"/>
      <point x="501.0" y="376.0" type="curve" smooth="yes"/>
      <point x="507.0" y="376.0"/>
      <point x="512.0" y="377.0"/>
    </contour>
  </outline>
</glyph>
<glyph name="b" format="1">
  <advance width="600.0"/>
  <unicode hex="0062"/>
  <outline>
    <contour>
      <point x="56.673901247965276" y="0.0" type="line"/>
      <point x="59.912319161797264" y="-3.0"/>
      <point x="64.65845846640792" y="-4.0"/>
      <point x="72.65845846640792" y="-4.0" type="curve" smooth="yes"/>
      <point x="95.65845846640791" y="-4.0"/>
      <point x="109.72022959263735" y="12.0"/>
      <point x="115.0513041958135" y="33.0" type="curve" smooth="yes"/>
      <point x="282.8532238481671" y="694.0" type="line"/>
      <point x="294.5308158360767" y="740.0"/>
      <point x="287.60802974386354" y="760.0"/>
      <point x="264.60802974386354" y="760.0" type="curve" smooth="yes"/>
      <point x="254.60802974386354" y="760.0"/>
      <point x="246.3541690484742" y="759.0"/>
      <point x="234.08486557152753" y="754.0" type="curve"/>
      <point x="238.99220888218335" y="730.0"/>
      <point x="237.1688556697859" y="711.0"/>
      <point x="224.4758209003189" y="661.0" type="curve" smooth="yes"/>
    </contour>
    <contour>
      <point x="439.1329354313619" y="536.0" type="curve" smooth="yes"/>
      <point x="347.0857297883885" y="536.0"/>
      <point x="251.65870862723818" y="460.71459576776994"/>
      <point x="186.51926207270753" y="349.28540423223006" type="curve" smooth="yes"/>
      <point x="166.13944655453065" y="314.28540423223006"/>
      <point x="159.75963103635377" y="277.42919153553987"/>
      <point x="163.66521975040695" y="253.42919153553987" type="curve"/>
      <point x="279.6115029842648" y="426.4763971785133"/>
      <point x="370.1801410743353" y="488.28540423223006"/>
      <point x="438.80032555615844" y="488.28540423223006" type="curve" smooth="yes"/>
      <point x="505.89473684210526" y="488.28540423223006"/>
      <point x="532.6115029842648" y="432.950623982637"/>
      <point x="512.186652197504" y="320.28540423223006" type="curve"/>
      <point x="544.186652197504" y="320.28540423223006"/>
      <point x="554.7102550189908" y="325.5236028214867"/>
      <point x="555.4720564297342" y="331.0" type="curve" smooth="yes"/>
      <point x="588.2295170916983" y="458.0"/>
      <point x="548.0363537710255" y="536.0"/>
    </contour>
    <contour>
      <point x="259.00651112316876" y="-10.0" type="curve" smooth="yes"/>
      <point x="393.7211068909387" y="-10.0"/>
      <point x="492.24253933803584" y="70.71676614215953"/>
      <point x="550.901247965274" y="310.9527943570266" type="curve" smooth="yes"/>
      <point x="555.4720564297342" y="331.0" type="line" smooth="yes"/>
      <point x="569.1844818231145" y="385.0"/>
      <point x="561.3239283776452" y="468.0"/>
      <point x="533.3239283776452" y="468.0" type="curve"/>
      <point x="526.6093326098752" y="468.0"/>
      <point x="520.8475311991318" y="465.4763971785133"/>
      <point x="517.3239283776452" y="461.4763971785133" type="curve"/>
      <point x="520.7552902875746" y="408.42919153553987"/>
      <point x="515.3754747693977" y="369.0"/>
      <point x="503.9484536082474" y="324.0" type="curve" smooth="yes"/>
      <point x="499.3776451437873" y="308.9055887140532" type="line" smooth="yes"/>
      <point x="455.1931633206728" y="133.0"/>
      <point x="378.8155181768855" y="37.71459576776994"/>
      <point x="268.8155181768855" y="37.71459576776994" type="curve" smooth="yes"/>
      <point x="197.81551817688552" y="37.71459576776994"/>
      <point x="162.57731958762886" y="65.19099294628323"/>
      <point x="130.90775908844276" y="134.09441128594682" type="curve"/>
      <point x="124.90775908844276" y="134.09441128594682"/>
      <point x="117.098752034726" y="121.09441128594682"/>
      <point x="115.57514921323929" y="115.09441128594682" type="curve" smooth="yes"/>
      <point x="102.62452523060229" y="65.4270211611503"/>
      <point x="168.197504069452" y="-10.0"/>
    </contour>
  </outline>
</glyph>
<glyph name="r" format="1">
  <advance width="450.0"/>
  <unicode hex="0072"/>
  <outline>
    <contour>
      <point x="80.93015164231953" y="-2.0" type="curve"/>
      <point x="197.95993221680516" y="459.0" type="line" smooth="yes"/>
      <point x="204.81417099231737" y="486.0"/>
      <point x="208.39910629088286" y="508.0"/>
      <point x="199.44543463555493" y="520.0" type="curve" smooth="yes"/>
      <point x="191.9840415894483" y="530.0"/>
      <point x="181.49176298022698" y="532.0"/>
      <point x="171.49176298022698" y="532.0" type="curve" smooth="yes"/>
      <point x="166.49176298022698" y="532.0"/>
      <point x="160.2379022848377" y="531.0"/>
      <point x="154.730180894059" y="529.0" type="curve"/>
      <point x="156.8759421185468" y="502.0"/>
      <point x="155.57575307848538" y="489.0"/>
      <point x="143.64430039518643" y="442.0" type="curve" smooth="yes"/>
      <point x="36.76894763627436" y="21.0" type="line" smooth="yes"/>
      <point x="32.19945511926623" y="3.0"/>
      <point x="48.93015164231953" y="-2.0"/>
      <point x="70.93015164231953" y="-2.0" type="curve" smooth="yes"/>
      <point x="73.93015164231953" y="-2.0"/>
      <point x="77.93015164231953" y="-2.0"/>
    </contour>
    <contour>
      <point x="127.24036896364623" y="200.098752034726" type="curve"/>
      <point x="232.37547476939773" y="396.7618014107434"/>
      <point x="325.3733043950081" y="490.28540423223006"/>
      <point x="410.94411285946825" y="490.28540423223006" type="curve" smooth="yes"/>
      <point x="437.3733043950081" y="490.28540423223006"/>
      <point x="452.84970157352143" y="486.28540423223006"/>
      <point x="465.32609875203474" y="478.28540423223006" type="curve"/>
      <point x="469.32609875203474" y="478.28540423223006" type="line"/>
      <point x="475.6115029842648" y="487.28540423223006"/>
      <point x="479.89690721649487" y="498.28540423223006"/>
      <point x="482.94411285946825" y="510.28540423223006" type="curve"/>
      <point x="488.27672273467175" y="530.0"/>
      <point x="472.56212696690176" y="540.0"/>
      <point x="426.56212696690176" y="540.0" type="curve" smooth="yes"/>
      <point x="423.5621269669018" y="540.0" type="line" smooth="yes"/>
      <point x="322.5621269669018" y="540.0"/>
      <point x="236.42051003798156" y="466.52143244709714"/>
      <point x="160.04503526858383" y="331.0472056429734" type="curve" smooth="yes"/>
      <point x="135.09441128594682" y="288.2381985892566"/>
      <point x="124.62018448182312" y="241.049376017363"/>
    </contour>
  </outline>
</glyph>
<glyph name="s" format="1">
  <advance width="550.0"/>
  <unicode hex="0073"/>
  <outline>
    <contour>
      <point x="368.8969072164948" y="538.0" type="curve" smooth="yes"/>
      <point x="366.18231144872493" y="538.0" type="line" smooth="yes"/>
      <point x="248.10182425418157" y="538.0"/>
      <point x="152.61150298426477" y="489.09224091155727"/>
      <point x="126.71025501899078" y="392.52143244709714" type="curve" smooth="yes"/>
      <point x="120.61584373304395" y="370.52143244709714"/>
      <point x="139.75963103635377" y="345.66521975040695"/>
      <point x="170.75963103635377" y="345.66521975040695" type="curve"/>
      <point x="169.56863809007052" y="361.66521975040695"/>
      <point x="170.61584373304396" y="373.66521975040695"/>
      <point x="174.42485078676071" y="387.66521975040695" type="curve" smooth="yes"/>
      <point x="189.6608790016278" y="449.66521975040695"/>
      <point x="266.33448248693776" y="491.28540423223006"/>
      <point x="360.3373351646534" y="491.28540423223006" type="curve" smooth="yes"/>
      <point x="420.3373351646534" y="491.28540423223006"/>
      <point x="456.5448675153707" y="480.28540423223006"/>
      <point x="489.45221082602654" y="456.28540423223006" type="curve"/>
      <point x="493.45221082602654" y="456.28540423223006" type="line"/>
      <point x="497.7552902875746" y="461.7618014107434"/>
      <point x="501.0406945198047" y="467.7618014107434"/>
      <point x="502.56429734129136" y="474.0" type="curve"/>
      <point x="506.3733043950081" y="489.4763971785133"/>
      <point x="504.89690721649487" y="498.4763971785133"/>
      <point x="498.18231144872493" y="507.4763971785133" type="curve" smooth="yes"/>
      <point x="484.9913185024417" y="524.4763971785133"/>
      <point x="440.80032555615844" y="538.0"/>
    </contour>
    <contour>
      <point x="338.66739012479655" y="269.7618014107434" type="curve" smooth="yes"/>
      <point x="251.23819858925665" y="286.7618014107434" type="line" smooth="yes"/>
      <point x="177.40854221894352" y="301.6959881321704"/>
      <point x="162.23602821486708" y="339.66521975040695"/>
      <point x="174.42485078676071" y="387.66521975040695" type="curve" smooth="yes"/>
      <point x="178.99565925122084" y="407.66521975040695"/>
      <point x="183.8046663049376" y="422.66521975040695"/>
      <point x="190.61367335865435" y="436.66521975040695" type="curve"/>
      <point x="147.8046663049376" y="421.66521975040695"/>
      <point x="132.04286489419425" y="413.52143244709714"/>
      <point x="126.71025501899078" y="392.52143244709714" type="curve"/>
      <point x="109.18882257189365" y="323.52143244709714"/>
      <point x="140.44022544653228" y="261.7318360144268"/>
      <point x="226.42919153553987" y="244.52360282148672" type="curve" smooth="yes"/>
      <point x="314.0965816603364" y="227.28540423223006" type="line" smooth="yes"/>
      <point x="390.5257731958763" y="211.28540423223006"/>
      <point x="403.8133478024959" y="168.33478024959305"/>
      <point x="384.7683125339121" y="94.00217037438958" type="curve" smooth="yes"/>
      <point x="383.2447097124254" y="88.00217037438958"/>
      <point x="380.9593054801953" y="81.00217037438958"/>
      <point x="380.19750406945195" y="76.00217037438958" type="curve"/>
      <point x="398.9593054801953" y="81.00217037438958"/>
      <point x="434.38632664134565" y="105.43136190992946"/>
      <point x="438.1953336950624" y="121.43136190992946" type="curve" smooth="yes"/>
      <point x="456.47856755290286" y="192.5257731958763"/>
      <point x="416.33478024959305" y="254.76180141074335"/>
    </contour>
    <contour>
      <point x="220.8307187625038" y="37.71459576776994" type="curve" smooth="yes"/>
      <point x="122.1203535508426" y="37.71459576776994"/>
      <point x="85.06711307020875" y="56.5936791607936"/>
      <point x="44.909929462832345" y="100.0" type="curve"/>
      <point x="40.909929462832345" y="100.0" type="line"/>
      <point x="36.86272381985893" y="95.23819858925664"/>
      <point x="35.100922409115576" y="90.0"/>
      <point x="33.57731958762887" y="84.76180141074335" type="curve" smooth="yes"/>
      <point x="29.00651112316875" y="65.04720564297341"/>
      <point x="31.721106890938692" y="52.85621269669018"/>
      <point x="38.435702658708635" y="43.85621269669018" type="curve" smooth="yes"/>
      <point x="58.65409069752329" y="15.787454741676475"/>
      <point x="117.3169977233444" y="-10.0"/>
      <point x="213.29408572978838" y="-10.0" type="curve" smooth="yes"/>
      <point x="217.53228431904503" y="-10.0" type="line" smooth="yes"/>
      <point x="339.7704829083017" y="-10.0"/>
      <point x="415.3412913727618" y="32.28757460661964"/>
      <point x="438.1953336950624" y="121.43136190992946" type="curve" smooth="yes"/>
      <point x="442.00434074877916" y="135.43136190992948"/>
      <point x="421.24253933803584" y="152.00217037438958"/>
      <point x="399.24253933803584" y="152.00217037438958" type="curve"/>
      <point x="397.7189365165491" y="146.00217037438958"/>
      <point x="396.9571351058058" y="142.00217037438958"/>
      <point x="396.1953336950624" y="139.00217037438958" type="curve" smooth="yes"/>
      <point x="377.15029842647857" y="65.00217037438958"/>
      <point x="319.3412913727618" y="37.71459576776994"/>
    </contour>
  </outline>
</glyph>
<glyph name="u" format="1">
  <advance width="600.0"/>
  <unicode hex="0075"/>
  <outline>
    <contour>
      <point x="517.0385241454151" y="531.0" type="curve"/>
      <point x="398.9593054801953" y="67.0" type="line" smooth="yes"/>
      <point x="392.1030927835052" y="40.0"/>
      <point x="388.0086814975583" y="18.0"/>
      <point x="396.96147585458493" y="6.0" type="curve" smooth="yes"/>
      <point x="404.67607162235487" y="-4.0"/>
      <point x="414.9142702116115" y="-6.0"/>
      <point x="424.9142702116115" y="-6.0" type="curve" smooth="yes"/>
      <point x="429.9142702116115" y="-6.0"/>
      <point x="437.4378730330982" y="-5.0"/>
      <point x="442.4378730330982" y="-3.0" type="curve"/>
      <point x="440.2940857297884" y="24.0"/>
      <point x="441.3412913727618" y="37.0"/>
      <point x="453.53011394465545" y="84.0" type="curve" smooth="yes"/>
      <point x="560.9441128594683" y="508.0" type="line" smooth="yes"/>
      <point x="565.5149213239283" y="526.0"/>
      <point x="549.0385241454151" y="531.0"/>
      <point x="527.0385241454151" y="531.0" type="curve" smooth="yes"/>
      <point x="524.0385241454151" y="531.0"/>
      <point x="520.0385241454151" y="531.0"/>
    </contour>
    <contour>
      <point x="167.8648941942485" y="-11.0" type="curve" smooth="yes"/>
      <point x="250.7704829083017" y="-11.0"/>
      <point x="356.86272381985896" y="73.66739012479653"/>
      <point x="439.71676614215954" y="191.42919153553987" type="curve" smooth="yes"/>
      <point x="462.33478024959305" y="223.71459576776994"/>
      <point x="472.71459576776994" y="258.0"/>
      <point x="466.6180141074335" y="300.28540423223006" type="curve"/>
      <point x="384.33695062398266" y="167.28540423223006"/>
      <point x="264.9593054801953" y="36.71459576776994"/>
      <point x="168.62669560499188" y="36.71459576776994" type="curve" smooth="yes"/>
      <point x="116.34129137276182" y="36.71459576776994"/>
      <point x="98.48290830168204" y="73.66739012479653"/>
      <point x="109.76614215952252" y="153.71459576776994" type="curve"/>
      <point x="72.52794357026588" y="151.71459576776994"/>
      <point x="68.00434074877916" y="140.23819858925665"/>
      <point x="64.95713510580575" y="129.0" type="curve" smooth="yes"/>
      <point x="46.67390124796528" y="59.332609875203474"/>
      <point x="80.48507867607162" y="-11.0"/>
    </contour>
    <contour>
      <point x="154.51492132392838" y="526.0" type="curve"/>
      <point x="152.84970157352143" y="483.0"/>
      <point x="145.70808464460117" y="449.0"/>
      <point x="134.2810634834509" y="402.0" type="curve" smooth="yes"/>
      <point x="64.95713510580575" y="129.0" type="line"/>
      <point x="56.57731958762887" y="96.5236028214867"/>
      <point x="64.72110689093869" y="81.33260987520347"/>
      <point x="95.05371676614216" y="81.33260987520347" type="curve"/>
      <point x="143.66739012479653" y="238.28540423223006"/>
      <point x="157.33260987520347" y="289.28540423223006"/>
      <point x="183.23385784047747" y="391.0" type="curve" smooth="yes"/>
      <point x="184.7574606619642" y="396.0" type="line" smooth="yes"/>
      <point x="211.42051003798156" y="501.0"/>
      <point x="193.27672273467172" y="528.0"/>
      <point x="167.27672273467172" y="528.0" type="curve" smooth="yes"/>
      <point x="162.27672273467172" y="528.0"/>
      <point x="157.51492132392838" y="527.0"/>
    </contour>
  </outline>
</glyph>
<glyph name="v" format="1">
  <advance width="600.0"/>
  <unicode hex="0076"/>
  <outline>
    <contour>
      <point x="546.2295170916983" y="530.0" type="curve" smooth="yes"/>
      <point x="536.2295170916983" y="530.0" type="line"/>
      <point x="442.9055887140532" y="225.24036896364623"/>
      <point x="370.6717308735757" y="122.5236028214867"/>
      <point x="217.67607162235487" y="23.61801410743353" type="curve"/>
      <point x="199.62886597938146" y="12.141616928920238"/>
      <point x="214.67607162235487" y="-10.0"/>
      <point x="228.67607162235487" y="-10.0" type="curve"/>
      <point x="256.67607162235487" y="-10.0" type="line"/>
      <point x="405.05371676614214" y="87.0"/>
      <point x="483.0021703743896" y="198.6717308735757"/>
      <point x="580.4205100379816" y="501.4763971785133" type="curve"/>
      <point x="584.4677156809549" y="516.0"/>
      <point x="572.2295170916983" y="530.0"/>
    </contour>
    <contour>
      <point x="153.80032555615844" y="530.0" type="curve" smooth="yes"/>
      <point x="141.9840415894483" y="530.0" type="line"/>
      <point x="94.17235035737987" y="255.0"/>
      <point x="106.6717308735757" y="116.0"/>
      <point x="182.7704829083017" y="14.0" type="curve"/>
      <point x="194.19967444384156" y="-2.0"/>
      <point x="207.67607162235487" y="-10.0"/>
      <point x="225.67607162235487" y="-10.0" type="curve" smooth="yes"/>
      <point x="231.67607162235487" y="-10.0" type="line" smooth="yes"/>
      <point x="250.67607162235487" y="-10.0"/>
      <point x="256.62886597938143" y="-1.7618014107433524"/>
      <point x="272.19967444384156" y="17.238198589256648" type="curve"/>
      <point x="262.19967444384156" y="17.238198589256648"/>
      <point x="255.19967444384156" y="17.238198589256648"/>
      <point x="252.19967444384156" y="17.238198589256648" type="curve" smooth="yes"/>
      <point x="247.19967444384156" y="17.238198589256648"/>
      <point x="241.96147585458493" y="19.238198589256648"/>
      <point x="239.72327726532828" y="22.238198589256648" type="curve"/>
      <point x="150.14812805208896" y="130.23819858925663"/>
      <point x="145.23819858925665" y="260.0"/>
      <point x="188.94411285946825" y="505.0" type="curve"/>
      <point x="193.27672273467172" y="524.0"/>
      <point x="179.80032555615844" y="530.0"/>
    </contour>
  </outline>
</glyph>
<glyph name="w" format="1">
  <advance width="800.0"/>
  <unicode hex="0077"/>
  <outline>
    <contour>
      <point x="134.50720576178435" y="536.0" type="curve"/>
      <point x="80.18779313893724" y="259.0"/>
      <point x="81.67818134754438" y="127.0"/>
      <point x="116.57685806711444" y="36.0" type="curve"/>
      <point x="128.96103720543425" y="6.0"/>
      <point x="141.89926607920484" y="-10.0"/>
      <point x="158.89926607920484" y="-10.0" type="curve"/>
      <point x="172.89926607920484" y="-10.0" type="line" smooth="yes"/>
      <point x="176.89926607920484" y="-10.0"/>
      <point x="179.4378730330982" y="12.0"/>
      <point x="179.4378730330982" y="18.0" type="curve"/>
      <point x="133.86272381985893" y="119.0"/>
      <point x="120.09875203472599" y="181.0"/>
      <point x="176.37330439500815" y="505.0" type="curve"/>
      <point x="179.18231144872487" y="520.0"/>
      <point x="178.94411285946825" y="523.0"/>
      <point x="176.46771568095497" y="527.0" type="curve" smooth="yes"/>
      <point x="171.9913185024417" y="533.0"/>
      <point x="160.5072057617844" y="536.0"/>
      <point x="144.50720576178435" y="536.0" type="curve"/>
      <point x="141.50720576178435" y="536.0"/>
      <point x="137.50720576178435" y="536.0"/>
    </contour>
    <contour>
      <point x="425.56429734129136" y="490.0" type="curve"/>
      <point x="328.66739012479655" y="260.0"/>
      <point x="263.6211492349848" y="135.90436583647224"/>
      <point x="155.19967444384156" y="16.0" type="curve"/>
      <point x="142.3906673901248" y="1.0"/>
      <point x="151.89926607920484" y="-10.0"/>
      <point x="167.89926607920484" y="-10.0" type="curve"/>
      <point x="189.89926607920484" y="-10.0" type="line"/>
      <point x="302.0156197184637" y="110.38951506778668"/>
      <point x="376.9184896619905" y="254.0"/>
      <point x="459.45221082602654" y="457.0" type="curve"/>
      <point x="465.00626056147735" y="471.0"/>
      <point x="473.8296137738747" y="490.0"/>
      <point x="442.8296137738747" y="490.0" type="curve" smooth="yes"/>
      <point x="437.8296137738747" y="490.0"/>
      <point x="430.56429734129136" y="490.0"/>
    </contour>
    <contour>
      <point x="437.0680316877067" y="487.0" type="curve"/>
      <point x="412.2032359204946" y="263.0"/>
      <point x="421.34710674436826" y="106.0"/>
      <point x="457.468758596213" y="8.0" type="curve"/>
      <point x="463.4069874699835" y="-8.0"/>
      <point x="475.89926607920484" y="-10.0"/>
      <point x="491.89926607920484" y="-10.0" type="curve"/>
      <point x="503.89926607920484" y="-10.0" type="line" smooth="yes"/>
      <point x="503.89926607920484" y="-10.0"/>
      <point x="506.4378730330982" y="12.0"/>
      <point x="505.67607162235487" y="16.0" type="curve"/>
      <point x="460.38632664134565" y="126.0"/>
      <point x="467.1437873033098" y="256.0"/>
      <point x="476.94628323385786" y="459.0" type="curve"/>
      <point x="478.0406945198047" y="483.0"/>
      <point x="474.8296137738747" y="490.0"/>
      <point x="442.8296137738747" y="490.0" type="curve" smooth="yes"/>
      <point x="440.8296137738747" y="490.0"/>
      <point x="438.5757530784854" y="489.0"/>
    </contour>
    <contour>
      <point x="751.7531199131851" y="536.0" type="curve"/>
      <point x="641.2403689636462" y="216.0"/>
      <point x="606.1106636605781" y="153.98508754070915"/>
      <point x="485.96147585458493" y="18.0" type="curve"/>
      <point x="477.9142702116115" y="5.0"/>
      <point x="477.89926607920484" y="-10.0"/>
      <point x="497.89926607920484" y="-10.0" type="curve"/>
      <point x="519.8992660792048" y="-10.0" type="line"/>
      <point x="648.9131631083937" y="124.54410837090066"/>
      <point x="709.5120288906363" y="260.20260173597126"/>
      <point x="794.8913849001042" y="506.0" type="curve"/>
      <point x="798.4299918539976" y="516.0"/>
      <point x="797.4454346355549" y="520.0"/>
      <point x="794.4608774171122" y="524.0" type="curve" smooth="yes"/>
      <point x="790.730180894059" y="529.0"/>
      <point x="780.5072057617843" y="536.0"/>
      <point x="764.5072057617843" y="536.0" type="curve"/>
      <point x="761.5072057617843" y="536.0"/>
      <point x="754.7531199131851" y="536.0"/>
    </contour>
  </outline>
</glyph>
<glyph name="y" format="1">
  <advance width="600.0"/>
  <unicode hex="0079"/>
  <outline>
    <contour>
      <point x="556.1823114487249" y="529.0" type="curve" smooth="yes"/>
      <point x="550.1823114487249" y="529.0"/>
      <point x="545.1823114487249" y="528.0"/>
      <point x="540.4205100379816" y="526.0" type="curve"/>
      <point x="406.6717308735757" y="145.0"/>
      <point x="288.72544763971786" y="-27.0"/>
      <point x="158.01519262072708" y="-130.28540423223006" type="curve" smooth="yes"/>
      <point x="95.30276722734675" y="-180.80900705371675"/>
      <point x="37.25556158437331" y="-202.71459576776994"/>
      <point x="-21.74443841562669" y="-202.71459576776994" type="curve" smooth="yes"/>
      <point x="-36.74443841562669" y="-202.71459576776994" type="line"/>
      <point x="-37.506239826370035" y="-205.71459576776994" type="line" smooth="yes"/>
      <point x="-44.3624525230602" y="-232.71459576776994"/>
      <point x="-31.027300814236753" y="-250.0"/>
      <point x="-14.027300814236753" y="-250.0" type="curve" smooth="yes"/>
      <point x="-9.027300814236753" y="-250.0" type="line" smooth="yes"/>
      <point x="55.97269918576325" y="-250.0"/>
      <point x="125.8423807428328" y="-219.0"/>
      <point x="194.80471898924648" y="-164.0" type="curve" smooth="yes"/>
      <point x="327.71395270051653" y="-58.0"/>
      <point x="456.45520621526975" y="134.0"/>
      <point x="585.6066386416001" y="497.0" type="curve" smooth="yes"/>
      <point x="593.4454346355549" y="520.0"/>
      <point x="581.1823114487249" y="529.0"/>
    </contour>
    <contour>
      <point x="150.730180894059" y="529.0" type="curve" smooth="yes"/>
      <point x="144.73018089405898" y="529.0"/>
      <point x="139.47632019866967" y="528.0"/>
      <point x="133.96859880789097" y="526.0" type="curve"/>
      <point x="99.42919153553989" y="236.80683667932718"/>
      <point x="122.76614215952253" y="142.57080846446013"/>
      <point x="164.00651112316876" y="76.57080846446011" type="curve" smooth="yes"/>
      <point x="189.34129137276182" y="35.57080846446012"/>
      <point x="246.24688008681497" y="0.0"/>
      <point x="305.4378730330982" y="0.0" type="curve" smooth="yes"/>
      <point x="312.4378730330982" y="0.0" type="line" smooth="yes"/>
      <point x="324.4378730330982" y="0.0"/>
      <point x="345.991922768549" y="14.0"/>
      <point x="353.1000222394505" y="42.0" type="curve"/>
      <point x="337.1000222394505" y="42.0" type="line"/>
      <point x="267.1000222394505" y="42.0"/>
      <point x="222.48290830168204" y="74.0"/>
      <point x="205.86272381985896" y="103.23819858925665" type="curve" smooth="yes"/>
      <point x="161.19316332067282" y="176.19099294628325"/>
      <point x="156.18882257189364" y="305.6201844818231"/>
      <point x="181.08790016277806" y="482.4763971785133" type="curve" smooth="yes"/>
      <point x="187.753119913185" y="525.0"/>
      <point x="174.730180894059" y="529.0"/>
    </contour>
  </outline>
</glyph>
<glyph name="z" format="1">
  <advance width="550.0"/>
  <unicode hex="007A"/>
  <outline>
    <contour>
      <point x="137.96859880789097" y="526.0" type="line"/>
      <point x="137.20701672172297" y="523.0"/>
      <point x="136.1915739401656" y="519.0"/>
      <point x="135.4299918539976" y="516.0" type="curve" smooth="yes"/>
      <point x="131.11436003237878" y="499.0"/>
      <point x="132.33733516465344" y="491.28540423223006"/>
      <point x="138.3064496015387" y="483.28540423223006" type="curve" smooth="yes"/>
      <point x="140.54486751537067" y="480.28540423223006"/>
      <point x="144.03714612459197" y="478.28540423223006"/>
      <point x="149.03714612459197" y="478.28540423223006" type="curve" smooth="yes"/>
      <point x="483.03714612459197" y="478.28540423223006" type="line" smooth="yes"/>
      <point x="498.03714612459197" y="478.28540423223006"/>
      <point x="512.5448675153707" y="480.5236028214867"/>
      <point x="528.321892383096" y="487.5236028214867" type="curve"/>
      <point x="528.8296137738747" y="489.5236028214867" type="line" smooth="yes"/>
      <point x="532.8913849001042" y="506.71459576776994"/>
      <point x="530.9222704632189" y="514.0"/>
      <point x="525.6992953309443" y="521.0" type="curve" smooth="yes"/>
      <point x="523.4608774171122" y="524.0"/>
      <point x="519.968598807891" y="526.0"/>
      <point x="514.968598807891" y="526.0" type="curve" smooth="yes"/>
    </contour>
    <contour>
      <point x="480.7552902875746" y="503.0" type="curve"/>
      <point x="387.3304395008139" y="355.0"/>
      <point x="211.5257731958763" y="175.0472056429734"/>
      <point x="14.592300848671798" y="40.71459576776994" type="curve"/>
      <point x="8.499644159327659" y="16.71459576776994"/>
      <point x="58.72110689093869" y="17.0"/>
      <point x="85.53011394465545" y="35.0" type="curve" smooth="yes"/>
      <point x="330.8562126966902" y="194.66521975040695"/>
      <point x="520.1983501306372" y="455.5236028214867"/>
      <point x="528.321892383096" y="487.5236028214867" type="curve"/>
      <point x="531.6220814231575" y="500.5236028214867"/>
      <point x="517.4205100379816" y="503.0"/>
    </contour>
    <contour>
      <point x="404.4378730330982" y="0.0" type="line"/>
      <point x="405.19945511926625" y="3.0"/>
      <point x="406.2148979008236" y="7.0"/>
      <point x="406.9764799869916" y="10.0" type="curve"/>
      <point x="412.81527598094647" y="33.0"/>
      <point x="411.3693257163972" y="47.71459576776994"/>
      <point x="393.3693257163972" y="47.71459576776994" type="curve" smooth="yes"/>
      <point x="82.3693257163972" y="47.71459576776994" type="line" smooth="yes"/>
      <point x="61.3693257163972" y="47.71459576776994"/>
      <point x="39.11546502100785" y="46.71459576776994"/>
      <point x="14.592300848671812" y="40.71459576776994" type="curve"/>
      <point x="13.830718762503793" y="37.714595767769936" type="line" smooth="yes"/>
      <point x="9.515086940885013" y="20.714595767769943"/>
      <point x="10.73806207315964" y="13.0"/>
      <point x="16.707176510044917" y="5.0" type="curve" smooth="yes"/>
      <point x="18.945594423876898" y="2.0"/>
      <point x="22.437873033098214" y="0.0"/>
      <point x="27.437873033098214" y="0.0" type="curve" smooth="yes"/>
    </contour>
  </outline>
</glyph>
<glyph name="braceleft" format="1">
  <advance width="500"/>
  <unicode hex="007B"/>
  <outline>
    <contour>
      <point x="384" y="721" type="curve" smooth="yes"/>
      <point x="407" y="721"/>
      <point x="421" y="719"/>
      <point x="441" y="713" type="curve"/>
      <point x="445" y="713" type="line"/>
      <point x="446" y="718"/>
      <point x="447" y="722"/>
      <point x="447" y="730" type="curve"/>
      <point x="447" y="752"/>
      <point x="434" y="770"/>
      <point x="397" y="770" type="curve" smooth="yes"/>
      <point x="392" y="770" type="line" smooth="yes"/>
      <point x="268" y="770"/>
      <point x="178" y="734"/>
      <point x="178" y="658" type="curve" smooth="yes"/>
      <point x="178" y="654" type="line" smooth="yes"/>
      <point x="178" y="644"/>
      <point x="194" y="631"/>
      <point x="211" y="631" type="curve"/>
      <point x="224" y="699"/>
      <point x="290" y="721"/>
    </contour>
    <contour>
      <point x="287" y="474" type="curve" smooth="yes"/>
      <point x="287" y="557"/>
      <point x="228" y="621"/>
      <point x="228" y="658" type="curve" smooth="yes"/>
      <point x="228" y="675"/>
      <point x="233" y="687"/>
      <point x="243" y="704" type="curve"/>
      <point x="213" y="704"/>
      <point x="178" y="698"/>
      <point x="178" y="658" type="curve" smooth="yes"/>
      <point x="178" y="654" type="line" smooth="yes"/>
      <point x="178" y="592"/>
      <point x="237" y="549"/>
      <point x="237" y="467" type="curve" smooth="yes"/>
      <point x="237" y="389"/>
      <point x="183" y="324"/>
      <point x="59" y="324" type="curve" smooth="yes"/>
      <point x="54" y="324" type="line"/>
      <point x="54" y="314" type="line" smooth="yes"/>
      <point x="54" y="294"/>
      <point x="60" y="285"/>
      <point x="66" y="285" type="curve" smooth="yes"/>
      <point x="72" y="285" type="line" smooth="yes"/>
      <point x="195" y="285"/>
      <point x="287" y="347"/>
    </contour>
    <contour>
      <point x="287" y="124" type="curve" smooth="yes"/>
      <point x="287" y="250"/>
      <point x="195" y="316"/>
      <point x="72" y="316" type="curve" smooth="yes"/>
      <point x="66" y="316"/>
      <point x="60" y="316"/>
      <point x="54" y="316" type="curve"/>
      <point x="54" y="308" type="line" smooth="yes"/>
      <point x="54" y="290"/>
      <point x="59" y="274"/>
      <point x="75" y="274" type="curve" smooth="yes"/>
      <point x="77" y="274" type="line" smooth="yes"/>
      <point x="182" y="274"/>
      <point x="237" y="207"/>
      <point x="237" y="131" type="curve" smooth="yes"/>
      <point x="237" y="49"/>
      <point x="178" y="1"/>
      <point x="178" y="-61" type="curve" smooth="yes"/>
      <point x="178" y="-63" type="line" smooth="yes"/>
      <point x="178" y="-112"/>
      <point x="220" y="-115"/>
      <point x="248" y="-115" type="curve"/>
      <point x="231" y="-97"/>
      <point x="228" y="-82"/>
      <point x="228" y="-61" type="curve" smooth="yes"/>
      <point x="228" y="-24"/>
      <point x="287" y="41"/>
    </contour>
    <contour>
      <point x="390" y="-122" type="curve" smooth="yes"/>
      <point x="267" y="-122"/>
      <point x="220" y="-103"/>
      <point x="204" y="-24" type="curve"/>
      <point x="188" y="-27"/>
      <point x="178" y="-44"/>
      <point x="178" y="-61" type="curve" smooth="yes"/>
      <point x="178" y="-63" type="line" smooth="yes"/>
      <point x="178" y="-149"/>
      <point x="273" y="-172"/>
      <point x="402" y="-172" type="curve" smooth="yes"/>
      <point x="408" y="-172" type="line" smooth="yes"/>
      <point x="436" y="-172"/>
      <point x="447" y="-152"/>
      <point x="447" y="-122" type="curve"/>
      <point x="447" y="-114" type="line"/>
      <point x="443" y="-114" type="line"/>
      <point x="427" y="-119"/>
      <point x="412" y="-122"/>
    </contour>
  </outline>
</glyph>
<glyph name="copyright" format="1">
  <advance width="600"/>
  <unicode hex="00A9"/>
  <outline>
    <contour>
      <point x="300" y="715" type="curve" smooth="yes"/>
      <point x="124.0" y="715.0"/>
      <point x="23" y="585"/>
      <point x="23" y="359" type="curve" smooth="yes"/>
      <point x="23" y="351" type="line" smooth="yes"/>
      <point x="23" y="115"/>
      <point x="121.0" y="-15.0"/>
      <point x="300" y="-15" type="curve" smooth="yes"/>
      <point x="327" y="-15.0"/>
      <point x="336.0" y="1.0"/>
      <point x="336" y="15" type="curve"/>
      <point x="170.0" y="15.0"/>
      <point x="71" y="120"/>
      <point x="71" y="335" type="curve" smooth="yes"/>
      <point x="71" y="366" type="line" smooth="yes"/>
      <point x="71" y="560"/>
      <point x="154.0" y="668.0"/>
      <point x="300" y="668" type="curve" smooth="yes"/>
      <point x="381" y="668.0"/>
      <point x="444" y="636"/>
      <point x="493" y="595" type="curve"/>
      <point x="542" y="635"/>
      <point x="391" y="715.0"/>
    </contour>
    <contour>
      <point x="300.0" y="-15.0" type="curve" smooth="yes"/>
      <point x="476.0" y="-15.0"/>
      <point x="577.0" y="115.0"/>
      <point x="577.0" y="341.0" type="curve" smooth="yes"/>
      <point x="577.0" y="349.0" type="line" smooth="yes"/>
      <point x="577.0" y="585.0"/>
      <point x="479.0" y="715.0"/>
      <point x="300.0" y="715.0" type="curve" smooth="yes"/>
      <point x="273.0" y="715.0"/>
      <point x="264.0" y="699.0"/>
      <point x="264.0" y="685.0" type="curve"/>
      <point x="430.0" y="685.0"/>
      <point x="529.0" y="580"/>
      <point x="529.0" y="365.0" type="curve" smooth="yes"/>
      <point x="529.0" y="334.0" type="line" smooth="yes"/>
      <point x="529" y="140"/>
      <point x="446.0" y="32.0"/>
      <point x="300.0" y="32.0" type="curve" smooth="yes"/>
      <point x="219.0" y="32.0"/>
      <point x="156.0" y="64.0"/>
      <point x="107.0" y="105.0" type="curve"/>
      <point x="57.0" y="65.0"/>
      <point x="209.0" y="-15.0"/>
    </contour>
    <contour>
      <point x="307" y="522.0" type="curve" smooth="yes"/>
      <point x="352" y="522.0"/>
      <point x="373" y="502"/>
      <point x="394" y="454" type="curve"/>
      <point x="411" y="454"/>
      <point x="416.0" y="464.0"/>
      <point x="416" y="471" type="curve" smooth="yes"/>
      <point x="416.0" y="494.0"/>
      <point x="410.0" y="512"/>
      <point x="389" y="533" type="curve" smooth="yes"/>
      <point x="366.0" y="556.0"/>
      <point x="343" y="566"/>
      <point x="306" y="566" type="curve" smooth="yes"/>
      <point x="218.0" y="566.0"/>
      <point x="165" y="483.0"/>
      <point x="165.0" y="342" type="curve" smooth="yes"/>
      <point x="165.0" y="331" type="line" smooth="yes"/>
      <point x="165.0" y="289.0"/>
      <point x="188.0" y="169.0"/>
      <point x="246" y="190" type="curve"/>
      <point x="222.0" y="238"/>
      <point x="213.0" y="259.0"/>
      <point x="213" y="341" type="curve" smooth="yes"/>
      <point x="213" y="352" type="line" smooth="yes"/>
      <point x="213" y="467.0"/>
      <point x="248.0" y="522.0"/>
    </contour>
    <contour>
      <point x="308" y="134.0" type="curve" smooth="yes"/>
      <point x="355.0" y="134.0"/>
      <point x="387.0" y="151"/>
      <point x="402" y="170" type="curve"/>
      <point x="412" y="182"/>
      <point x="414.0" y="192.0"/>
      <point x="414" y="207" type="curve" smooth="yes"/>
      <point x="414.0" y="218"/>
      <point x="413.0" y="228"/>
      <point x="410" y="238" type="curve"/>
      <point x="406" y="238" type="line"/>
      <point x="383" y="197.0"/>
      <point x="350.0" y="180.0"/>
      <point x="305" y="180.0" type="curve" smooth="yes"/>
      <point x="249.0" y="180.0"/>
      <point x="200.0" y="229.0"/>
      <point x="195" y="347" type="curve"/>
      <point x="174" y="347"/>
      <point x="165" y="347"/>
      <point x="165.0" y="331" type="curve" smooth="yes"/>
      <point x="165" y="188.0"/>
      <point x="219" y="134.0"/>
    </contour>
    <contour>
      <point x="416" y="411" type="curve"/>
      <point x="416" y="471" type="line" smooth="yes"/>
      <point x="416" y="487"/>
      <point x="387" y="543.0"/>
      <point x="347" y="531" type="curve"/>
      <point x="366.0" y="505.0"/>
      <point x="367" y="496"/>
      <point x="367.0" y="475" type="curve" smooth="yes"/>
      <point x="367" y="446" type="line" smooth="yes"/>
      <point x="367.0" y="420.0"/>
      <point x="379.0" y="407.0"/>
      <point x="401" y="407" type="curve" smooth="yes"/>
      <point x="409.0" y="407.0"/>
      <point x="412.0" y="408.0"/>
    </contour>
  </outline>
</glyph>
<glyph name="logicalnot" format="1">
  <advance width="600"/>
  <unicode hex="00AC"/>
  <outline>
    <contour>
      <point x="70" y="410" type="line"/>
      <point x="70.0" y="407"/>
      <point x="70.0" y="403"/>
      <point x="70" y="400" type="curve" smooth="yes"/>
      <point x="70" y="384"/>
      <point x="73" y="373"/>
      <point x="81" y="365" type="curve" smooth="yes"/>
      <point x="84" y="362"/>
      <point x="88.0" y="360"/>
      <point x="93" y="360" type="curve"/>
      <point x="524" y="360" type="line"/>
      <point x="524" y="365" type="line"/>
      <point x="524.0" y="390.0"/>
      <point x="519.0" y="410.0"/>
      <point x="501" y="410" type="curve"/>
    </contour>
    <contour>
      <point x="524" y="137" type="curve"/>
      <point x="524" y="365" type="line" smooth="yes"/>
      <point x="524.0" y="382.0"/>
      <point x="502.0" y="383.0"/>
      <point x="479" y="383.0" type="curve"/>
      <point x="474" y="383" type="line"/>
      <point x="474" y="160" type="line" smooth="yes"/>
      <point x="474.0" y="142.0"/>
      <point x="492.0" y="137.0"/>
      <point x="514" y="137" type="curve" smooth="yes"/>
      <point x="517" y="137.0"/>
      <point x="521" y="137.0"/>
    </contour>
  </outline>
</glyph>
<glyph name="registered" format="1">
  <advance width="600"/>
  <unicode hex="00AE"/>
  <outline>
    <contour>
      <point x="246" y="328" type="curve"/>
      <point x="241.0" y="354"/>
      <point x="239.0" y="373.0"/>
      <point x="239" y="403" type="curve"/>
      <point x="239" y="538" type="line"/>
      <point x="239.0" y="590.0"/>
      <point x="228.0" y="611.0"/>
      <point x="197" y="611" type="curve"/>
      <point x="197" y="385" type="line" smooth="yes"/>
      <point x="197.0" y="347.0"/>
      <point x="207" y="325.0"/>
      <point x="229" y="325" type="curve" smooth="yes"/>
      <point x="235" y="325.0"/>
      <point x="240" y="326.0"/>
    </contour>
    <contour>
      <point x="172" y="627" type="curve"/>
      <point x="170.0" y="622"/>
      <point x="169.0" y="616.0"/>
      <point x="169.0" y="608" type="curve"/>
      <point x="169.0" y="597.0"/>
      <point x="173.0" y="586.0"/>
      <point x="183" y="586" type="curve"/>
      <point x="187.0" y="586.0"/>
      <point x="191.0" y="587.0"/>
      <point x="197" y="588" type="curve" smooth="yes"/>
      <point x="225" y="593.0"/>
      <point x="265.0" y="599.0"/>
      <point x="293" y="599" type="curve" smooth="yes"/>
      <point x="342.0" y="599.0"/>
      <point x="366" y="590.0"/>
      <point x="388" y="564" type="curve"/>
      <point x="415.0" y="604.0"/>
      <point x="357" y="640.0"/>
      <point x="303" y="640" type="curve" smooth="yes"/>
      <point x="262" y="640.0"/>
      <point x="226" y="636.0"/>
    </contour>
    <contour>
      <point x="419.0" y="548" type="curve" smooth="yes"/>
      <point x="419" y="556" type="line" smooth="yes"/>
      <point x="419" y="605.0"/>
      <point x="375" y="640.0"/>
      <point x="303" y="640" type="curve"/>
      <point x="283" y="640.0"/>
      <point x="276.0" y="629.0"/>
      <point x="276" y="610" type="curve"/>
      <point x="356.0" y="610.0"/>
      <point x="376" y="600"/>
      <point x="376.0" y="548" type="curve" smooth="yes"/>
      <point x="376.0" y="541" type="line" smooth="yes"/>
      <point x="376.0" y="496.0"/>
      <point x="321.0" y="464.0"/>
      <point x="236" y="464" type="curve" smooth="yes"/>
      <point x="218" y="464.0"/>
      <point x="214" y="464.0"/>
      <point x="210" y="464" type="curve"/>
      <point x="207.0" y="462.0"/>
      <point x="207.0" y="461.0"/>
      <point x="207" y="459" type="curve" smooth="yes"/>
      <point x="207.0" y="451"/>
      <point x="221.0" y="426.0"/>
      <point x="234" y="426" type="curve" smooth="yes"/>
      <point x="236" y="426" type="line" smooth="yes"/>
      <point x="332.0" y="426"/>
      <point x="419.0" y="469.0"/>
    </contour>
    <contour>
      <point x="345" y="470" type="line"/>
      <point x="328.0" y="465.0"/>
      <point x="308.0" y="454.0"/>
      <point x="314" y="439" type="curve" smooth="yes"/>
      <point x="339" y="371" type="line" smooth="yes"/>
      <point x="351" y="339"/>
      <point x="370.0" y="325"/>
      <point x="388" y="325" type="curve" smooth="yes"/>
      <point x="391" y="325.0" type="line" smooth="yes"/>
      <point x="414.0" y="325.0"/>
      <point x="421.0" y="337"/>
      <point x="421.0" y="354" type="curve"/>
      <point x="421.0" y="363"/>
      <point x="420.0" y="369"/>
      <point x="419" y="373" type="curve"/>
      <point x="416" y="373" type="line"/>
      <point x="410" y="369.0"/>
      <point x="403.0" y="367.0"/>
      <point x="395" y="367.0" type="curve"/>
      <point x="385.0" y="367.0"/>
      <point x="381" y="373"/>
      <point x="369" y="405" type="curve" smooth="yes"/>
    </contour>
    <contour>
      <point x="300" y="760" type="curve" smooth="yes"/>
      <point x="137.0" y="760.0"/>
      <point x="43" y="659.0"/>
      <point x="43" y="483" type="curve" smooth="yes"/>
      <point x="43" y="475" type="line" smooth="yes"/>
      <point x="43" y="299"/>
      <point x="133.92418772563178" y="200.0"/>
      <point x="300" y="200" type="curve" smooth="yes"/>
      <point x="327" y="200.0"/>
      <point x="336.0" y="216.0"/>
      <point x="336" y="230" type="curve"/>
      <point x="182.52830188679246" y="230.0"/>
      <point x="85" y="307"/>
      <point x="85" y="463" type="curve" smooth="yes"/>
      <point x="85" y="494" type="line" smooth="yes"/>
      <point x="85" y="635.0"/>
      <point x="167.0" y="716.0"/>
      <point x="300" y="716" type="curve" smooth="yes"/>
      <point x="377" y="716.0"/>
      <point x="438.0434664059559" y="687.6166913746084"/>
      <point x="483" y="650" type="curve"/>
      <point x="509.95861997007864" y="687.184303407005"/>
      <point x="386" y="760.0"/>
    </contour>
    <contour>
      <point x="300.0" y="200.0" type="curve" smooth="yes"/>
      <point x="463.2924187725632" y="200.0"/>
      <point x="557.0" y="299.09293680297395"/>
      <point x="557.0" y="472.0" type="curve" smooth="yes"/>
      <point x="557.0" y="480.0" type="line" smooth="yes"/>
      <point x="557.0" y="661.0600706713781"/>
      <point x="466.0" y="760.0"/>
      <point x="300.0" y="760.0" type="curve" smooth="yes"/>
      <point x="273.0" y="760.0"/>
      <point x="264.0" y="744.0"/>
      <point x="264.0" y="730.0" type="curve"/>
      <point x="417.47169811320754" y="730.0"/>
      <point x="515.0" y="653.0"/>
      <point x="515.0" y="493.0" type="curve" smooth="yes"/>
      <point x="515.0" y="462.0" type="line" smooth="yes"/>
      <point x="515" y="324"/>
      <point x="433.0" y="244.0"/>
      <point x="300.0" y="244.0" type="curve" smooth="yes"/>
      <point x="223.0" y="244.0"/>
      <point x="162.42045041964698" y="272.1496246502942"/>
      <point x="117.0" y="310.0" type="curve"/>
      <point x="89.53181686230977" y="273.06002957345106"/>
      <point x="213.71502590673575" y="200.0"/>
    </contour>
  </outline>
</glyph>
<glyph name="paragraph" format="1">
  <advance width="600"/>
  <unicode hex="00B6"/>
  <outline>
    <contour>
      <point x="360" y="-157" type="curve"/>
      <point x="360" y="604" type="line"/>
      <point x="360" y="653"/>
      <point x="342.0" y="667.0"/>
      <point x="320" y="667" type="curve" smooth="yes"/>
      <point x="317.0" y="667.0"/>
      <point x="313" y="667.0"/>
      <point x="310" y="667" type="curve"/>
      <point x="310" y="-100" type="line" smooth="yes"/>
      <point x="310" y="-136"/>
      <point x="322" y="-160.0"/>
      <point x="348" y="-160" type="curve" smooth="yes"/>
      <point x="352" y="-160.0"/>
      <point x="356" y="-159"/>
    </contour>
    <contour>
      <point x="517" y="-157" type="curve"/>
      <point x="511" y="-122"/>
      <point x="510" y="-87"/>
      <point x="510" y="-50" type="curve" smooth="yes"/>
      <point x="510" y="637" type="line" smooth="yes"/>
      <point x="510.0" y="655.0"/>
      <point x="492.0" y="660.0"/>
      <point x="470" y="660" type="curve" smooth="yes"/>
      <point x="467.0" y="660.0"/>
      <point x="463" y="660.0"/>
      <point x="460" y="660" type="curve"/>
      <point x="460" y="-100" type="line" smooth="yes"/>
      <point x="460.0" y="-133.0"/>
      <point x="472.0" y="-160.0"/>
      <point x="500" y="-160" type="curve" smooth="yes"/>
      <point x="506" y="-160"/>
      <point x="511" y="-159"/>
    </contour>
    <contour>
      <point x="354" y="710.0" type="line" smooth="yes"/>
      <point x="188.0" y="710.0"/>
      <point x="65.0" y="602.0"/>
      <point x="65" y="408" type="curve" smooth="yes"/>
      <point x="65" y="393" type="line" smooth="yes"/>
      <point x="65" y="252"/>
      <point x="150" y="164.0"/>
      <point x="312" y="164.0" type="curve" smooth="yes"/>
      <point x="327" y="164.0" type="line" smooth="yes"/>
      <point x="345" y="164"/>
      <point x="349.0" y="186"/>
      <point x="350" y="208" type="curve"/>
      <point x="332" y="208" type="line" smooth="yes"/>
      <point x="184.0" y="208.0"/>
      <point x="115" y="284"/>
      <point x="115.0" y="392" type="curve" smooth="yes"/>
      <point x="115.0" y="408" type="line" smooth="yes"/>
      <point x="115.0" y="555.0"/>
      <point x="200.0" y="660.0"/>
      <point x="353" y="660.0" type="curve" smooth="yes"/>
      <point x="442" y="660"/>
      <point x="495" y="647.0"/>
      <point x="547" y="598" type="curve"/>
      <point x="551" y="598" type="line"/>
      <point x="554" y="608"/>
      <point x="555" y="616"/>
      <point x="555" y="624" type="curve" smooth="yes"/>
      <point x="555" y="639"/>
      <point x="554" y="648"/>
      <point x="545" y="657" type="curve" smooth="yes"/>
      <point x="514" y="688"/>
      <point x="454" y="710.0"/>
      <point x="360" y="710" type="curve" smooth="yes"/>
    </contour>
  </outline>
</glyph>
<glyph name="threequarters" format="1">
  <advance width="600"/>
  <unicode hex="00BE"/>
  <outline>
    <contour>
      <point x="187" y="661.0" type="curve" smooth="yes"/>
      <point x="237.0" y="661.0"/>
      <point x="265.0" y="641"/>
      <point x="265" y="614" type="curve" smooth="yes"/>
      <point x="265.0" y="606"/>
      <point x="264.0" y="601"/>
      <point x="263" y="596" type="curve"/>
      <point x="284" y="597"/>
      <point x="317.0" y="612.0"/>
      <point x="317" y="618" type="curve" smooth="yes"/>
      <point x="317" y="625" type="line" smooth="yes"/>
      <point x="317" y="672.0"/>
      <point x="268.0" y="711.0"/>
      <point x="186" y="711.0" type="curve"/>
      <point x="139.0" y="711.0"/>
      <point x="101" y="696"/>
      <point x="82" y="677" type="curve" smooth="yes"/>
      <point x="71" y="666"/>
      <point x="67.0" y="656"/>
      <point x="67" y="640" type="curve" smooth="yes"/>
      <point x="67.0" y="629"/>
      <point x="68.0" y="623"/>
      <point x="72" y="613" type="curve"/>
      <point x="74" y="613" type="line"/>
      <point x="109" y="648"/>
      <point x="141.0" y="661.0"/>
    </contour>
    <contour>
      <point x="146" y="526" type="curve" smooth="yes"/>
      <point x="265.0" y="526.0"/>
      <point x="317.0" y="572.0"/>
      <point x="317" y="618" type="curve" smooth="yes"/>
      <point x="317.0" y="642"/>
      <point x="285.0" y="660.0"/>
      <point x="262" y="660" type="curve"/>
      <point x="266.0" y="652"/>
      <point x="267.0" y="646.0"/>
      <point x="267.0" y="630" type="curve" smooth="yes"/>
      <point x="267.0" y="584"/>
      <point x="214.0" y="561.0"/>
      <point x="126" y="561" type="curve"/>
      <point x="124" y="555"/>
      <point x="123.0" y="550"/>
      <point x="123" y="541" type="curve" smooth="yes"/>
      <point x="123" y="529"/>
      <point x="141" y="526"/>
    </contour>
    <contour>
      <point x="153" y="511.0" type="curve" smooth="yes"/>
      <point x="237.0" y="511.0"/>
      <point x="272.0" y="490"/>
      <point x="272.0" y="456" type="curve" smooth="yes"/>
      <point x="272.0" y="446.0"/>
      <point x="271.0" y="439"/>
      <point x="268" y="431" type="curve"/>
      <point x="306" y="431.0"/>
      <point x="322.0" y="445.0"/>
      <point x="322" y="459" type="curve" smooth="yes"/>
      <point x="322.0" y="535"/>
      <point x="238.0" y="551.0"/>
      <point x="129" y="551" type="curve"/>
      <point x="128.0" y="545"/>
      <point x="123.0" y="545"/>
      <point x="123" y="541" type="curve" smooth="yes"/>
      <point x="123.0" y="527.0"/>
      <point x="127" y="511"/>
    </contour>
    <contour>
      <point x="182" y="407.0" type="curve" smooth="yes"/>
      <point x="134" y="407.0"/>
      <point x="99" y="425"/>
      <point x="69" y="454" type="curve"/>
      <point x="67" y="454" type="line"/>
      <point x="60.0" y="443"/>
      <point x="58.0" y="433"/>
      <point x="58.0" y="420" type="curve" smooth="yes"/>
      <point x="58.0" y="406"/>
      <point x="60" y="400"/>
      <point x="68" y="392" type="curve" smooth="yes"/>
      <point x="85" y="376"/>
      <point x="131" y="357.0"/>
      <point x="182" y="357" type="curve" smooth="yes"/>
      <point x="273.0" y="357.0"/>
      <point x="322.0" y="406.0"/>
      <point x="322" y="451" type="curve" smooth="yes"/>
      <point x="322" y="459" type="line" smooth="yes"/>
      <point x="322" y="479"/>
      <point x="295.0" y="488.0"/>
      <point x="270" y="488" type="curve"/>
      <point x="271" y="483"/>
      <point x="272" y="477"/>
      <point x="272.0" y="469" type="curve" smooth="yes"/>
      <point x="272.0" y="431.0"/>
      <point x="240.0" y="407.0"/>
    </contour>
    <contour>
      <point x="302" y="115" type="curve"/>
      <point x="325" y="205"/>
      <point x="361" y="269"/>
      <point x="439" y="332" type="curve"/>
      <point x="439" y="335" type="line"/>
      <point x="426.0" y="340.0"/>
      <point x="421" y="342.0"/>
      <point x="402" y="342.0" type="curve" smooth="yes"/>
      <point x="381" y="342.0"/>
      <point x="372" y="335"/>
      <point x="360" y="323" type="curve" smooth="yes"/>
      <point x="315" y="278"/>
      <point x="264.0" y="185.0"/>
      <point x="264" y="127" type="curve" smooth="yes"/>
      <point x="264.0" y="121.0"/>
      <point x="277" y="115.0"/>
    </contour>
    <contour>
      <point x="557" y="88" type="line"/>
      <point x="559.0" y="94"/>
      <point x="560.0" y="101"/>
      <point x="560" y="107" type="curve" smooth="yes"/>
      <point x="560.0" y="122"/>
      <point x="553.0" y="135.0"/>
      <point x="527" y="135" type="curve" smooth="yes"/>
      <point x="435" y="135" type="line" smooth="yes"/>
      <point x="336" y="135"/>
      <point x="313" y="134"/>
      <point x="264" y="127" type="curve"/>
      <point x="264" y="123" type="line" smooth="yes"/>
      <point x="264.0" y="110"/>
      <point x="278" y="88"/>
      <point x="295" y="88" type="curve" smooth="yes"/>
    </contour>
    <contour>
      <point x="500" y="-3" type="curve"/>
      <point x="495" y="16"/>
      <point x="493" y="32"/>
      <point x="493" y="52" type="curve" smooth="yes"/>
      <point x="493" y="200" type="line" smooth="yes"/>
      <point x="493.0" y="219.0"/>
      <point x="476" y="237.0"/>
      <point x="461" y="237" type="curve" smooth="yes"/>
      <point x="459" y="237" type="line"/>
      <point x="446.0" y="193.0"/>
      <point x="443.0" y="160.0"/>
      <point x="443" y="131" type="curve" smooth="yes"/>
      <point x="443" y="31" type="line" smooth="yes"/>
      <point x="443" y="4"/>
      <point x="461.0" y="-6.0"/>
      <point x="485" y="-6" type="curve" smooth="yes"/>
      <point x="490.0" y="-6.0"/>
      <point x="495" y="-5.0"/>
    </contour>
    <component base="fraction"/>
  </outline>
</glyph>
<glyph name="germandbls" format="1">
  <advance width="600"/>
  <unicode hex="00DF"/>
  <outline>
    <contour>
      <point x="207" y="706" type="curve"/>
      <point x="150.0" y="725.0"/>
      <point x="90" y="638.0"/>
      <point x="90" y="542" type="curve" smooth="yes"/>
      <point x="90" y="64" type="line" smooth="yes"/>
      <point x="90.0" y="5.0"/>
      <point x="108" y="-6"/>
      <point x="132" y="-6" type="curve"/>
      <point x="140" y="-6.0"/>
      <point x="147" y="-5.0"/>
      <point x="153" y="-2" type="curve"/>
      <point x="143.0" y="32"/>
      <point x="140.0" y="54.0"/>
      <point x="140" y="104" type="curve"/>
      <point x="140.0" y="521" type="line"/>
      <point x="140.0" y="624.0"/>
      <point x="159.0" y="661.0"/>
    </contour>
    <contour>
      <point x="312" y="760.0" type="curve" smooth="yes"/>
      <point x="168.0" y="760.0"/>
      <point x="90.0" y="684.0"/>
      <point x="90" y="542" type="curve" smooth="yes"/>
      <point x="90.0" y="523.0"/>
      <point x="96.0" y="517.0"/>
      <point x="121" y="518" type="curve"/>
      <point x="121" y="647.0"/>
      <point x="181.0" y="710.0"/>
      <point x="309" y="710" type="curve" smooth="yes"/>
      <point x="402.0" y="710.0"/>
      <point x="450.0" y="686.0"/>
      <point x="450.0" y="629" type="curve"/>
      <point x="450" y="609"/>
      <point x="447" y="588"/>
      <point x="439" y="564" type="curve"/>
      <point x="474.0" y="571.0"/>
      <point x="499.0" y="597.9411764705883"/>
      <point x="499" y="635" type="curve" smooth="yes"/>
      <point x="499.0" y="694.0"/>
      <point x="461" y="760"/>
    </contour>
    <contour>
      <point x="284" y="377" type="line" smooth="yes"/>
      <point x="284" y="349.96"/>
      <point x="318.9939892093123" y="322.99955475624535"/>
      <point x="346" y="325" type="curve"/>
      <point x="335" y="345"/>
      <point x="332" y="366"/>
      <point x="332" y="379" type="curve" smooth="yes"/>
      <point x="332.0" y="403.0"/>
      <point x="341.089685424291" y="422.15470789398455"/>
      <point x="384" y="462" type="curve" smooth="yes"/>
      <point x="426" y="501" type="line" smooth="yes"/>
      <point x="482" y="551.0"/>
      <point x="499.0" y="577.0"/>
      <point x="499" y="622" type="curve" smooth="yes"/>
      <point x="499" y="635" type="line" smooth="yes"/>
      <point x="499.0" y="641.15"/>
      <point x="495.00873744410677" y="680.0007597777484"/>
      <point x="449" y="676" type="curve"/>
      <point x="452.0878655179655" y="659.5313839041839"/>
      <point x="453.0" y="655"/>
      <point x="453.0" y="642" type="curve" smooth="yes"/>
      <point x="453.0" y="596.0"/>
      <point x="445" y="578"/>
      <point x="398" y="538" type="curve" smooth="yes"/>
      <point x="345" y="492" type="line" smooth="yes"/>
      <point x="302.0" y="455.0"/>
      <point x="284.0" y="417.0"/>
      <point x="284" y="384" type="curve" smooth="yes"/>
    </contour>
    <contour>
      <point x="424" y="292" type="curve" smooth="yes"/>
      <point x="393" y="308" type="line" smooth="yes"/>
      <point x="344.9009512767097" y="332.82531547008534"/>
      <point x="329.0" y="343.0"/>
      <point x="329.0" y="378" type="curve" smooth="yes"/>
      <point x="329.0" y="398.0"/>
      <point x="334.6376998698359" y="422.3311382212355"/>
      <point x="348" y="447" type="curve"/>
      <point x="320.02371137815044" y="451.9957658253303"/>
      <point x="284.0" y="415.8888888888889"/>
      <point x="284" y="377" type="curve" smooth="yes"/>
      <point x="284.0" y="331.14285714285717"/>
      <point x="306.9715629345383" y="299.4974674476526"/>
      <point x="364" y="270" type="curve" smooth="yes"/>
      <point x="393" y="255" type="line" smooth="yes"/>
      <point x="466" y="217"/>
      <point x="486.0" y="177.0"/>
      <point x="486" y="138" type="curve"/>
      <point x="486.0" y="102.0"/>
      <point x="482.7860162535868" y="90.40084551004298"/>
      <point x="468" y="49" type="curve"/>
      <point x="505.44073612610157" y="48.01471747036575"/>
      <point x="535.0" y="97.87640449438203"/>
      <point x="535.0" y="136" type="curve" smooth="yes"/>
      <point x="535.0" y="195.76623376623377"/>
      <point x="505.30328195466876" y="250.03701576533226"/>
    </contour>
    <contour>
      <point x="380" y="40" type="curve" smooth="yes"/>
      <point x="315" y="40"/>
      <point x="288" y="52"/>
      <point x="243" y="95" type="curve"/>
      <point x="239" y="95" type="line"/>
      <point x="238" y="91"/>
      <point x="237.0" y="85.0"/>
      <point x="237" y="75" type="curve" smooth="yes"/>
      <point x="237.0" y="61"/>
      <point x="239" y="44"/>
      <point x="251" y="32" type="curve" smooth="yes"/>
      <point x="273" y="9"/>
      <point x="317" y="-10"/>
      <point x="380" y="-10.0" type="curve" smooth="yes"/>
      <point x="465.55194805194805" y="-10.0"/>
      <point x="535" y="37.31428571428572"/>
      <point x="535" y="128" type="curve" smooth="yes"/>
      <point x="535" y="136" type="line" smooth="yes"/>
      <point x="535" y="153.4857142857143"/>
      <point x="518.7142857142857" y="208.0"/>
      <point x="478" y="208" type="curve"/>
      <point x="485.12993112221835" y="180.49883710001495"/>
      <point x="490.0" y="159.35135135135135"/>
      <point x="490" y="133" type="curve" smooth="yes"/>
      <point x="490.0" y="78.58510638297872"/>
      <point x="452.6605504587156" y="40.0"/>
    </contour>
  </outline>
</glyph>
<glyph name="Eng" format="1">
  <advance width="700"/>
  <unicode hex="014A"/>
  <outline>
    <contour>
      <point x="371" y="-200" type="curve" smooth="yes"/>
      <point x="321" y="-200"/>
      <point x="290" y="-193"/>
      <point x="246" y="-165" type="curve"/>
      <point x="242" y="-165" type="line"/>
      <point x="241.0" y="-170"/>
      <point x="240.0" y="-179"/>
      <point x="240" y="-186" type="curve" smooth="yes"/>
      <point x="240" y="-200"/>
      <point x="243" y="-211"/>
      <point x="250" y="-218" type="curve" smooth="yes"/>
      <point x="268" y="-236"/>
      <point x="315.0" y="-250.0"/>
      <point x="370" y="-250" type="curve" smooth="yes"/>
      <point x="540.0" y="-250.0"/>
      <point x="600.0" y="-129.0"/>
      <point x="600" y="-10" type="curve"/>
      <point x="600" y="10"/>
      <point x="576.0" y="20.0"/>
      <point x="551" y="20" type="curve"/>
      <point x="551.0" y="-130.0"/>
      <point x="492.0" y="-200.0"/>
    </contour>
    <component base="N"/>
  </outline>
</glyph>
<glyph name="acutecomb" format="1">
  <unicode hex="0301"/>
  <outline>
    <contour>
      <point x="-10.0" y="641.0" type="curve" smooth="yes"/>
      <point x="1.0" y="641.0"/>
      <point x="16" y="645"/>
      <point x="31.0" y="654.0" type="curve" smooth="yes"/>
      <point x="80.0" y="682.0"/>
      <point x="122.0" y="730.0"/>
      <point x="137.0" y="775.0" type="curve"/>
      <point x="141" y="786"/>
      <point x="139" y="799.0"/>
      <point x="126.0" y="805.0" type="curve" smooth="yes"/>
      <point x="115" y="810"/>
      <point x="107.0" y="811.0"/>
      <point x="92.0" y="811.0" type="curve"/>
      <point x="77.0" y="752.0"/>
      <point x="32.0" y="700.0"/>
      <point x="-33.0" y="650.0" type="curve"/>
      <point x="-27.0" y="643.0"/>
      <point x="-17.0" y="641.0"/>
    </contour>
    <contour>
      <point x="0" y="535" type="move" name="_top"/>
    </contour>
  </outline>
</glyph>
<glyph name="brevecomb" format="1">
  <unicode hex="0306"/>
  <outline>
    <contour>
      <point x="-132" y="799.0" type="curve"/>
      <point x="-145" y="797.0"/>
      <point x="-156" y="793.0"/>
      <point x="-163" y="786" type="curve"/>
      <point x="-167" y="782"/>
      <point x="-168" y="775"/>
      <point x="-163" y="762" type="curve" smooth="yes"/>
      <point x="-138" y="695"/>
      <point x="-84.0" y="656.0"/>
      <point x="-4" y="656.0" type="curve" smooth="yes"/>
      <point x="0" y="656" type="line"/>
      <point x="28.0" y="656"/>
      <point x="39" y="682"/>
      <point x="39.0" y="698" type="curve"/>
      <point x="-68.0" y="698.0"/>
      <point x="-110" y="726"/>
    </contour>
    <contour>
      <point x="132" y="799.0" type="curve"/>
      <point x="110" y="726"/>
      <point x="68.0" y="698.0"/>
      <point x="-39.0" y="698" type="curve"/>
      <point x="-39.0" y="682"/>
      <point x="-28.0" y="656"/>
      <point x="0" y="656" type="curve"/>
      <point x="4.0" y="656.0" type="line" smooth="yes"/>
      <point x="84.0" y="656.0"/>
      <point x="138" y="695"/>
      <point x="163" y="762" type="curve" smooth="yes"/>
      <point x="168" y="775"/>
      <point x="167" y="782"/>
      <point x="163" y="786" type="curve"/>
      <point x="156" y="793.0"/>
      <point x="145" y="797.0"/>
    </contour>
    <contour>
      <point x="0" y="535" type="move" name="_top"/>
    </contour>
  </outline>
</glyph>
<glyph name="caroncomb" format="1">
  <unicode hex="030C"/>
  <outline>
    <component base="circumflexcomb" xScale="-1.0" yScale="-1.0" xOffset="1.0" yOffset="1459.0"/>
    <contour>
      <point x="0" y="535" type="move" name="_top"/>
    </contour>
  </outline>
</glyph>
<glyph name="cedillacomb" format="1">
  <unicode hex="0327"/>
  <outline>
    <contour>
      <point x="92" y="-122" type="curve" smooth="yes"/>
      <point x="92.0" y="-73.0"/>
      <point x="63" y="-45"/>
      <point x="16" y="-42" type="curve"/>
      <point x="16.0" y="-19"/>
      <point x="20" y="-1"/>
      <point x="28" y="22" type="curve"/>
      <point x="3" y="26.0"/>
      <point x="-11" y="19"/>
      <point x="-15" y="11" type="curve" smooth="yes"/>
      <point x="-24" y="-7"/>
      <point x="-31.0" y="-30"/>
      <point x="-31" y="-58" type="curve" smooth="yes"/>
      <point x="-31.0" y="-70"/>
      <point x="-20.0" y="-80.0"/>
      <point x="-4" y="-80" type="curve" smooth="yes"/>
      <point x="28" y="-80.0"/>
      <point x="43.0" y="-95.0"/>
      <point x="43" y="-122" type="curve" smooth="yes"/>
      <point x="43.0" y="-155"/>
      <point x="21" y="-176.0"/>
      <point x="-23" y="-176.0" type="curve" smooth="yes"/>
      <point x="-55" y="-176.0"/>
      <point x="-72" y="-168"/>
      <point x="-91" y="-148" type="curve"/>
      <point x="-95" y="-148" type="line"/>
      <point x="-99" y="-159"/>
      <point x="-100" y="-166"/>
      <point x="-100" y="-176" type="curve" smooth="yes"/>
      <point x="-100.0" y="-200.0"/>
      <point x="-75" y="-223"/>
      <point x="-24" y="-223.0" type="curve" smooth="yes"/>
      <point x="51.0" y="-223.0"/>
      <point x="92.0" y="-181.0"/>
    </contour>
    <contour>
      <point x="1" y="0" type="move" name="_bottom"/>
    </contour>
  </outline>
</glyph>
<glyph name="emdash" format="1">
  <advance width="600"/>
  <unicode hex="2014"/>
  <outline>
    <contour>
      <point x="-20" y="325" type="line"/>
      <point x="-20" y="322"/>
      <point x="-20" y="318"/>
      <point x="-20" y="315" type="curve" smooth="yes"/>
      <point x="-20.0" y="293.0"/>
      <point x="-15.942028985507248" y="275.0"/>
      <point x="0" y="275" type="curve"/>
      <point x="620" y="275" type="line"/>
      <point x="620" y="278"/>
      <point x="620" y="282"/>
      <point x="620" y="285" type="curve" smooth="yes"/>
      <point x="620.0" y="307.0"/>
      <point x="616" y="325"/>
      <point x="600" y="325" type="curve"/>
    </contour>
  </outline>
</glyph>
<glyph name="dagger" format="1">
  <advance width="600"/>
  <unicode hex="2020"/>
  <outline>
    <contour>
      <point x="336" y="-150" type="curve"/>
      <point x="326" y="-102"/>
      <point x="324.0" y="-61.0"/>
      <point x="324" y="1" type="curve"/>
      <point x="324" y="460" type="line" smooth="yes"/>
      <point x="324" y="670" type="line" smooth="yes"/>
      <point x="324" y="701"/>
      <point x="313.0" y="710.0"/>
      <point x="289" y="710" type="curve" smooth="yes"/>
      <point x="280" y="710"/>
      <point x="273" y="709"/>
      <point x="267" y="707" type="curve"/>
      <point x="273" y="672"/>
      <point x="274" y="637"/>
      <point x="274" y="600" type="curve"/>
      <point x="274" y="283" type="line" smooth="yes"/>
      <point x="274" y="-85.0"/>
      <point x="286.0" y="-127.0"/>
      <point x="304" y="-145" type="curve" smooth="yes"/>
      <point x="310" y="-151"/>
      <point x="315" y="-153.0"/>
      <point x="322" y="-153.0" type="curve"/>
      <point x="327" y="-153.0"/>
      <point x="332" y="-152.0"/>
    </contour>
    <contour>
      <point x="60" y="450" type="curve"/>
      <point x="540" y="450" type="line"/>
      <point x="540.0" y="453.0"/>
      <point x="540.0" y="457.0"/>
      <point x="540" y="460" type="curve" smooth="yes"/>
      <point x="540.0" y="482.0"/>
      <point x="535.0" y="500.0"/>
      <point x="517" y="500" type="curve" smooth="yes"/>
      <point x="83" y="500" type="line" smooth="yes"/>
      <point x="64.66666666666666" y="500.0"/>
      <point x="60.0" y="482.0"/>
      <point x="60" y="460" type="curve" smooth="yes"/>
      <point x="60.0" y="457.0"/>
      <point x="60.0" y="453.0"/>
    </contour>
  </outline>
</glyph>
<glyph name="fraction" format="1">
  <advance width="600"/>
  <unicode hex="2044"/>
  <outline>
    <contour>
      <point x="369.0" y="417.0" type="curve"/>
      <point x="383.0" y="409.0"/>
      <point x="392.0" y="406.0"/>
      <point x="407.0" y="406.0" type="curve" smooth="yes"/>
      <point x="418.0" y="406.0"/>
      <point x="424.0" y="409.0"/>
      <point x="430.0" y="415.0" type="curve" smooth="yes"/>
      <point x="495.7485741844183" y="480.7485741844183"/>
      <point x="550.0" y="582.279411764706"/>
      <point x="550.0" y="675.0" type="curve" smooth="yes"/>
      <point x="550.0" y="693.0"/>
      <point x="534.0" y="706.0"/>
      <point x="509.0" y="706.0" type="curve" smooth="yes"/>
      <point x="497.0" y="706.0"/>
      <point x="488.0" y="704.0"/>
      <point x="476.0" y="699.0" type="curve"/>
      <point x="469.2867329611357" y="583.9154221908988"/>
      <point x="444.6741020333362" y="511.59262754167025"/>
    </contour>
    <contour>
      <point x="231.0" y="282.0" type="curve"/>
      <point x="217" y="290.0"/>
      <point x="208" y="293.0"/>
      <point x="193.0" y="293.0" type="curve" smooth="yes"/>
      <point x="182.0" y="293.0"/>
      <point x="176" y="290"/>
      <point x="170.0" y="284.0" type="curve" smooth="yes"/>
      <point x="105" y="219"/>
      <point x="50.0" y="117"/>
      <point x="50.0" y="24.0" type="curve" smooth="yes"/>
      <point x="50.0" y="6.0"/>
      <point x="66.0" y="-7.0"/>
      <point x="91.0" y="-7.0" type="curve" smooth="yes"/>
      <point x="103" y="-7.0"/>
      <point x="112" y="-5.0"/>
      <point x="124.0" y="0.0" type="curve"/>
      <point x="131" y="115"/>
      <point x="156" y="187"/>
    </contour>
  </outline>
</glyph>
<glyph name="uni2126" format="1">
  <advance width="600"/>
  <unicode hex="2126"/>
  <outline>
    <contour>
      <point x="50" y="50" type="line"/>
      <point x="50.0" y="47.0"/>
      <point x="50.0" y="43.0"/>
      <point x="50" y="40" type="curve"/>
      <point x="50.0" y="15.0"/>
      <point x="58.0" y="0.0"/>
      <point x="73" y="0" type="curve"/>
      <point x="260" y="0" type="line"/>
      <point x="260.0" y="3.0"/>
      <point x="260.0" y="7.0"/>
      <point x="260" y="10" type="curve" smooth="yes"/>
      <point x="260" y="32"/>
      <point x="255" y="50"/>
      <point x="237" y="50" type="curve"/>
    </contour>
    <contour>
      <point x="300" y="720" type="curve" smooth="yes"/>
      <point x="145.0" y="720.0"/>
      <point x="65" y="579"/>
      <point x="65" y="365" type="curve" smooth="yes"/>
      <point x="65" y="335" type="line" smooth="yes"/>
      <point x="65" y="140"/>
      <point x="138.0" y="36.0"/>
      <point x="223" y="36" type="curve"/>
      <point x="234.0" y="36.0"/>
      <point x="241.0" y="38.0"/>
      <point x="241" y="46" type="curve"/>
      <point x="159.0" y="69.0"/>
      <point x="115" y="170.0"/>
      <point x="115" y="342" type="curve" smooth="yes"/>
      <point x="115" y="365" type="line" smooth="yes"/>
      <point x="115" y="551"/>
      <point x="178.0" y="670.0"/>
      <point x="309" y="670" type="curve" smooth="yes"/>
      <point x="346" y="670"/>
      <point x="384" y="661"/>
      <point x="427" y="642" type="curve"/>
      <point x="455" y="670"/>
      <point x="379" y="720"/>
    </contour>
    <contour>
      <point x="360" y="35" type="curve" smooth="yes"/>
      <point x="462.0" y="35.0"/>
      <point x="535" y="162"/>
      <point x="535" y="355" type="curve" smooth="yes"/>
      <point x="535" y="385" type="line" smooth="yes"/>
      <point x="535" y="590"/>
      <point x="462.0" y="720.0"/>
      <point x="300" y="720" type="curve" smooth="yes"/>
      <point x="289" y="720"/>
      <point x="282" y="708"/>
      <point x="282" y="690" type="curve"/>
      <point x="427.0" y="683.0"/>
      <point x="485" y="563"/>
      <point x="485" y="378" type="curve" smooth="yes"/>
      <point x="485" y="355" type="line" smooth="yes"/>
      <point x="485" y="165.0"/>
      <point x="431" y="72.0"/>
      <point x="346" y="45" type="curve"/>
      <point x="346.0" y="40"/>
      <point x="350.0" y="35.0"/>
    </contour>
    <contour>
      <point x="340" y="50" type="line"/>
      <point x="340.0" y="47.0"/>
      <point x="340.0" y="43.0"/>
      <point x="340" y="40" type="curve"/>
      <point x="340.0" y="15.0"/>
      <point x="348.0" y="0.0"/>
      <point x="363" y="0" type="curve"/>
      <point x="550" y="0" type="line"/>
      <point x="550.0" y="3.0"/>
      <point x="550.0" y="7.0"/>
      <point x="550" y="10" type="curve" smooth="yes"/>
      <point x="550" y="32"/>
      <point x="545" y="50"/>
      <point x="527" y="50" type="curve"/>
    </contour>
  </outline>
</glyph>
<glyph name="C.replaced_with_nokinks" format="1">
  <advance width="600"/>
  <outline>
    <contour>
      <point x="336" y="673" type="curve" smooth="yes"/>
      <point x="422.0" y="673.0"/>
      <point x="465" y="650"/>
      <point x="499" y="609" type="curve"/>
      <point x="523" y="648"/>
      <point x="523" y="654"/>
      <point x="518" y="659" type="curve" smooth="yes"/>
      <point x="480" y="697"/>
      <point x="423" y="720"/>
      <point x="336" y="720" type="curve" smooth="yes"/>
      <point x="164.0" y="720.0"/>
      <point x="75" y="619"/>
      <point x="75" y="432" type="curve" smooth="yes"/>
      <point x="75" y="244" type="line" smooth="yes"/>
      <point x="75.0" y="188.0"/>
      <point x="97.0" y="127.0"/>
      <point x="127" y="127" type="curve"/>
      <point x="127" y="171"/>
      <point x="127.0" y="202.0"/>
      <point x="127" y="248" type="curve" smooth="yes"/>
      <point x="127" y="434" type="line" smooth="yes"/>
      <point x="127" y="597"/>
      <point x="193.0" y="673.0"/>
    </contour>
    <contour>
      <point x="325" y="-20.0" type="curve" smooth="yes"/>
      <point x="411" y="-20"/>
      <point x="483.34186506176553" y="4.341865061765567"/>
      <point x="522" y="43" type="curve" smooth="yes"/>
      <point x="524" y="45"/>
      <point x="525" y="48"/>
      <point x="525" y="51" type="curve" smooth="yes"/>
      <point x="525" y="64"/>
      <point x="525" y="77"/>
      <point x="525" y="91" type="curve"/>
      <point x="513" y="91" type="line"/>
      <point x="457" y="46"/>
      <point x="401" y="27"/>
      <point x="325" y="27" type="curve" smooth="yes"/>
      <point x="205.0" y="27"/>
      <point x="127.0" y="113.0"/>
      <point x="127" y="248" type="curve"/>
      <point x="83" y="257"/>
      <point x="75" y="255"/>
      <point x="75" y="244" type="curve" smooth="yes"/>
      <point x="75.0" y="87.05511811023621"/>
      <point x="175.0" y="-20.0"/>
    </contour>
    <contour>
      <point x="524" y="500" type="curve"/>
      <point x="524" y="640" type="line" smooth="yes"/>
      <point x="524.0" y="652.0"/>
      <point x="523" y="654"/>
      <point x="518" y="659" type="curve" smooth="yes"/>
      <point x="512" y="665"/>
      <point x="513" y="668"/>
      <point x="474" y="668" type="curve"/>
      <point x="474" y="656"/>
      <point x="474.0" y="639.0"/>
      <point x="474" y="631" type="curve" smooth="yes"/>
      <point x="474" y="511" type="line"/>
      <point x="474" y="508"/>
      <point x="475" y="505"/>
      <point x="477" y="503" type="curve" smooth="yes"/>
      <point x="479" y="501"/>
      <point x="482" y="500"/>
      <point x="485" y="500" type="curve"/>
      <point x="498" y="500"/>
      <point x="511" y="500"/>
    </contour>
  </outline>
</glyph>
<glyph name="O.replaced_with_nokinks" format="1">
  <advance width="600"/>
  <outline>
    <contour>
      <point x="300.0" y="720.0" type="curve" smooth="yes"/>
      <point x="172.0" y="720.0"/>
      <point x="67.0" y="641.4345991561181"/>
      <point x="67.0" y="475.0" type="curve" smooth="yes"/>
      <point x="67.0" y="211.0" type="line" smooth="yes"/>
      <point x="67" y="56"/>
      <point x="158.0" y="-20.0"/>
      <point x="288.0" y="-20.0" type="curve" smooth="yes"/>
      <point x="300.0" y="-20.0" type="line" smooth="yes"/>
      <point x="315.0" y="-20.0"/>
      <point x="318.0" y="-3.0"/>
      <point x="318.0" y="9.0" type="curve"/>
      <point x="146" y="22"/>
      <point x="117" y="129"/>
      <point x="117.0" y="217.0" type="curve" smooth="yes"/>
      <point x="117.0" y="476.0" type="line" smooth="yes"/>
      <point x="117.0" y="589.0"/>
      <point x="174.0" y="673.0"/>
      <point x="309.0" y="673.0" type="curve" smooth="yes"/>
      <point x="363" y="673.0"/>
      <point x="399" y="663"/>
      <point x="435.0" y="643.0" type="curve"/>
      <point x="441.0" y="643.0"/>
      <point x="444.0" y="648.0"/>
      <point x="444.0" y="654.0" type="curve"/>
      <point x="444.0" y="680.0"/>
      <point x="382" y="720.0"/>
    </contour>
    <contour>
      <point x="300.0" y="-20.0" type="curve" smooth="yes"/>
      <point x="428.0" y="-20.0"/>
      <point x="533" y="58"/>
      <point x="533.0" y="225.0" type="curve" smooth="yes"/>
      <point x="533.0" y="489.0" type="line" smooth="yes"/>
      <point x="533.0" y="643.3452914798206"/>
      <point x="442.0" y="720.0"/>
      <point x="312.0" y="720.0" type="curve" smooth="yes"/>
      <point x="300.0" y="720.0" type="line" smooth="yes"/>
      <point x="285.0" y="720.0"/>
      <point x="282.0" y="702.0"/>
      <point x="282.0" y="690.0" type="curve"/>
      <point x="454" y="677"/>
      <point x="483.0" y="570.0"/>
      <point x="483.0" y="483.0" type="curve" smooth="yes"/>
      <point x="483.0" y="224.0" type="line" smooth="yes"/>
      <point x="483" y="112"/>
      <point x="426.0" y="27.0"/>
      <point x="291.0" y="27.0" type="curve" smooth="yes"/>
      <point x="237.0" y="27.0"/>
      <point x="201.0" y="37.0"/>
      <point x="165.0" y="57.0" type="curve"/>
      <point x="159.0" y="57.0"/>
      <point x="156.0" y="52.0"/>
      <point x="156.0" y="46.0" type="curve"/>
      <point x="156.0" y="20.0"/>
      <point x="218.0" y="-20.0"/>
    </contour>
  </outline>
</glyph>
<glyph name="b.replaced_with_nokinks" format="1">
  <advance width="600"/>
  <outline>
    <contour>
      <point x="110" y="0" type="line"/>
      <point x="121" y="0.0"/>
      <point x="131" y="0.0"/>
      <point x="142" y="0" type="curve" smooth="yes"/>
      <point x="153.0" y="0.0"/>
      <point x="160.0" y="53.0"/>
      <point x="160" y="87" type="curve" smooth="yes"/>
      <point x="160" y="739" type="line"/>
      <point x="160.0" y="745.0"/>
      <point x="155.0" y="750.0"/>
      <point x="149" y="750" type="curve" smooth="yes"/>
      <point x="136" y="750.0"/>
      <point x="123" y="750.0"/>
      <point x="110" y="750" type="curve"/>
      <point x="110" y="718"/>
      <point x="110.0" y="684.0"/>
      <point x="110" y="649" type="curve" smooth="yes"/>
    </contour>
    <contour>
      <point x="344" y="536" type="curve" smooth="yes"/>
      <point x="268.0" y="536.0"/>
      <point x="208" y="499"/>
      <point x="160" y="451" type="curve" smooth="yes"/>
      <point x="140" y="431"/>
      <point x="137" y="401"/>
      <point x="139" y="377" type="curve"/>
      <point x="217.1328807113672" y="459.1917316574123"/>
      <point x="270.0" y="489.0"/>
      <point x="343" y="489" type="curve" smooth="yes"/>
      <point x="428.0" y="489.0"/>
      <point x="484.0" y="413.75757575757575"/>
      <point x="484" y="298" type="curve"/>
      <point x="518" y="302"/>
      <point x="525" y="324"/>
      <point x="525" y="334" type="curve" smooth="yes"/>
      <point x="525.0" y="458.8207547169811"/>
      <point x="448.0" y="536.0"/>
    </contour>
    <contour>
      <point x="327.0" y="-10.0" type="curve" smooth="yes"/>
      <point x="451.0" y="-10.0"/>
      <point x="525.0" y="67.0"/>
      <point x="525" y="214" type="curve" smooth="yes"/>
      <point x="525" y="334" type="line" smooth="yes"/>
      <point x="525" y="384"/>
      <point x="490.0" y="458.0"/>
      <point x="466" y="458" type="curve"/>
      <point x="457" y="458"/>
      <point x="452.0" y="457.0"/>
      <point x="450" y="453" type="curve"/>
      <point x="467.041491247562" y="412.2897709086019"/>
      <point x="475" y="372"/>
      <point x="475" y="304" type="curve" smooth="yes"/>
      <point x="475" y="224" type="line" smooth="yes"/>
      <point x="475.0" y="94.0"/>
      <point x="428.0" y="37.0"/>
      <point x="321" y="37" type="curve" smooth="yes"/>
      <point x="252.0" y="37.0"/>
      <point x="209.3275024031091" y="73.24580039589155"/>
      <point x="152" y="149" type="curve"/>
      <point x="146.0" y="149.0"/>
      <point x="133.47546467272323" y="111.75766213939978"/>
      <point x="143" y="98" type="curve" smooth="yes"/>
      <point x="185.23019588250781" y="37.67114873927455"/>
      <point x="238" y="-10"/>
    </contour>
  </outline>
</glyph>
<glyph name="brevecomb.case" format="1">
  <outline>
    <contour>
      <point x="-132" y="935" type="curve"/>
      <point x="-145" y="933"/>
      <point x="-156" y="929"/>
      <point x="-163" y="923" type="curve"/>
      <point x="-167" y="919"/>
      <point x="-168" y="913"/>
      <point x="-163" y="901" type="curve" smooth="yes"/>
      <point x="-138" y="841"/>
      <point x="-85.0" y="806.0"/>
      <point x="-4" y="806" type="curve" smooth="yes"/>
      <point x="0" y="806" type="line"/>
      <point x="28" y="806"/>
      <point x="39" y="829"/>
      <point x="39" y="844" type="curve"/>
      <point x="-68" y="844"/>
      <point x="-110" y="869"/>
    </contour>
    <contour>
      <point x="132" y="935" type="curve"/>
      <point x="110" y="869"/>
      <point x="68" y="844"/>
      <point x="-39" y="844" type="curve"/>
      <point x="-39" y="829"/>
      <point x="-28" y="806"/>
      <point x="0" y="806" type="curve"/>
      <point x="4" y="806" type="line" smooth="yes"/>
      <point x="85.0" y="806.0"/>
      <point x="138" y="841"/>
      <point x="163" y="901" type="curve" smooth="yes"/>
      <point x="168" y="913"/>
      <point x="167" y="919"/>
      <point x="163" y="923" type="curve"/>
      <point x="156" y="929"/>
      <point x="145" y="933"/>
    </contour>
    <contour>
      <point x="0" y="711" type="move" name="_top"/>
    </contour>
  </outline>
</glyph>
<glyph name="caroncomb.case" format="1">
  <outline>
    <component base="circumflexcomb.case" xScale="-1.0" xyScale="2.220446049250313e-16" yxScale="-2.220446049250313e-16" yScale="-1.0" xOffset="1.0" yOffset="1724.0"/>
    <contour>
      <point x="0" y="711" type="move" name="_top"/>
    </contour>
  </outline>
</glyph>
<glyph name="circumflexcomb.case" format="1">
  <outline>
    <contour>
      <point x="-151.0" y="771" type="line"/>
      <point x="-117.0" y="823"/>
      <point x="-53.0" y="873"/>
      <point x="13.0" y="892" type="curve"/>
      <point x="13.0" y="920"/>
      <point x="7.0" y="934.0"/>
      <point x="0.0" y="934.0" type="curve"/>
      <point x="-7.0" y="934.0" type="line"/>
      <point x="-65.0" y="914"/>
      <point x="-115.0" y="876"/>
      <point x="-154.0" y="834" type="curve" smooth="yes"/>
      <point x="-176.0" y="811"/>
      <point x="-183.0" y="794"/>
      <point x="-183.0" y="787" type="curve" smooth="yes"/>
      <point x="-183.0" y="777"/>
      <point x="-177.0" y="771"/>
      <point x="-157.0" y="771" type="curve"/>
    </contour>
    <contour>
      <point x="196.0" y="782" type="curve"/>
      <point x="159.0" y="841"/>
      <point x="97.0" y="887"/>
      <point x="57.0" y="912" type="curve" smooth="yes"/>
      <point x="22.0" y="933"/>
      <point x="11.0" y="934.0"/>
      <point x="2.0" y="934.0" type="curve" smooth="yes"/>
      <point x="-2.0" y="934.0" type="line"/>
      <point x="-8.0" y="934.0"/>
      <point x="-13.0" y="923"/>
      <point x="-13.0" y="893" type="curve"/>
      <point x="44.0" y="875"/>
      <point x="92.0" y="841"/>
      <point x="132.0" y="797" type="curve" smooth="yes"/>
      <point x="149.0" y="778"/>
      <point x="155.0" y="774"/>
      <point x="167.0" y="774" type="curve" smooth="yes"/>
      <point x="179.0" y="774"/>
      <point x="187.0" y="776"/>
    </contour>
    <contour>
      <point x="0" y="711" type="move" name="_top"/>
    </contour>
  </outline>
</glyph>
<glyph name="commaaboverightcomb.case" format="1">
  <outline>
    <contour>
      <point x="-23.0" y="484.0" type="curve" smooth="yes"/>
      <point x="-13" y="484.0"/>
      <point x="-8" y="486"/>
      <point x="-2" y="492.0" type="curve" smooth="yes"/>
      <point x="26.0" y="520.0"/>
      <point x="44.0" y="602.0"/>
      <point x="44" y="675.0" type="curve" smooth="yes"/>
      <point x="44" y="702"/>
      <point x="30" y="710.0"/>
      <point x="13" y="710.0" type="curve" smooth="yes"/>
      <point x="2.0" y="710.0"/>
      <point x="-3.0" y="708.0"/>
      <point x="-10" y="705.0" type="curve"/>
      <point x="-10.0" y="615.0"/>
      <point x="-16.0" y="571.0"/>
      <point x="-46.0" y="490.0" type="curve"/>
      <point x="-40.0" y="486.0"/>
      <point x="-34.0" y="484.0"/>
    </contour>
    <contour>
      <point x="0" y="550" type="move" name="_caronslovak"/>
    </contour>
  </outline>
</glyph>
<glyph name="j.replaced_with_nokinks" format="1">
  <advance width="600"/>
  <outline>
    <contour>
      <point x="80" y="526" type="curve"/>
      <point x="80.0" y="514.3333333333334"/>
      <point x="80.0" y="502.6666666666667"/>
      <point x="80" y="491" type="curve" smooth="yes"/>
      <point x="80" y="485"/>
      <point x="85" y="480"/>
      <point x="91" y="480" type="curve" smooth="yes"/>
      <point x="184" y="480"/>
      <point x="295" y="480"/>
      <point x="388" y="480" type="curve"/>
      <point x="388.0" y="507.6"/>
      <point x="384.0" y="526.0"/>
      <point x="377" y="526" type="curve" smooth="yes"/>
      <point x="285" y="526"/>
      <point x="172" y="526"/>
    </contour>
    <contour>
      <point x="425" y="0" type="curve" smooth="yes"/>
      <point x="425" y="515" type="line" smooth="yes"/>
      <point x="425" y="518"/>
      <point x="424" y="521"/>
      <point x="422" y="523" type="curve" smooth="yes"/>
      <point x="420.0" y="525.0"/>
      <point x="417" y="526"/>
      <point x="414" y="526" type="curve" smooth="yes"/>
      <point x="375" y="526" type="line"/>
      <point x="375" y="0" type="line" smooth="yes"/>
      <point x="375.0" y="-98.0"/>
      <point x="354" y="-143.0"/>
      <point x="276" y="-206" type="curve"/>
      <point x="343" y="-229"/>
      <point x="425" y="-117"/>
    </contour>
    <contour>
      <point x="192" y="-203" type="curve" smooth="yes"/>
      <point x="145" y="-203"/>
      <point x="106" y="-195"/>
      <point x="72" y="-178" type="curve"/>
      <point x="60" y="-178" type="line"/>
      <point x="60" y="-191"/>
      <point x="60" y="-203"/>
      <point x="60" y="-216" type="curve" smooth="yes"/>
      <point x="60" y="-220"/>
      <point x="61" y="-222"/>
      <point x="63" y="-224" type="curve" smooth="yes"/>
      <point x="77" y="-238"/>
      <point x="135" y="-250"/>
      <point x="192" y="-250" type="curve" smooth="yes"/>
      <point x="349.0" y="-250.0"/>
      <point x="425.0" y="-164.0"/>
      <point x="425" y="0" type="curve" smooth="yes"/>
      <point x="425" y="15"/>
      <point x="418.0" y="20.0"/>
      <point x="404" y="20" type="curve"/>
      <point x="380" y="-180"/>
      <point x="269" y="-203"/>
    </contour>
    <contour>
      <point x="440" y="676" type="curve"/>
      <point x="440" y="745" type="line" smooth="yes"/>
      <point x="440" y="751"/>
      <point x="435" y="756"/>
      <point x="429" y="756" type="curve" smooth="yes"/>
      <point x="406" y="756"/>
      <point x="383" y="756"/>
      <point x="360" y="756" type="curve"/>
      <point x="360" y="687" type="line" smooth="yes"/>
      <point x="360" y="681"/>
      <point x="365" y="676"/>
      <point x="371" y="676" type="curve" smooth="yes"/>
      <point x="394" y="676"/>
      <point x="417" y="676"/>
    </contour>
  </outline>
</glyph>
<glyph name="r.italic" format="1">
  <advance width="450.0"/>
  <outline>
    <contour>
      <point x="100.96859880789097" y="526.0" type="curve"/>
      <point x="100.20701672172297" y="523.0"/>
      <point x="99.1915739401656" y="519.0"/>
      <point x="98.42999185399758" y="516.0" type="curve" smooth="yes"/>
      <point x="91.57575307848538" y="489.0"/>
      <point x="97.03714612459198" y="478.28540423223006"/>
      <point x="112.03714612459198" y="478.28540423223006" type="curve" smooth="yes"/>
      <point x="121.03714612459198" y="478.28540423223006"/>
      <point x="147.81417099231737" y="485.28540423223006"/>
      <point x="204.81417099231737" y="485.28540423223006" type="curve"/>
      <point x="213.95315602633357" y="521.28540423223"/>
      <point x="203.74562367561634" y="533.0"/>
      <point x="188.74562367561634" y="533.0" type="curve" smooth="yes"/>
      <point x="159.74562367561634" y="533.0"/>
      <point x="139.23790228483767" y="531.0"/>
    </contour>
    <contour>
      <point x="109.91470886076218" y="-6.0" type="curve"/>
      <point x="108.54597250399974" y="28.0"/>
      <point x="111.13090780256522" y="50.0"/>
      <point x="123.82394257203221" y="100.0" type="curve"/>
      <point x="226.12980281393618" y="503.0" type="line" smooth="yes"/>
      <point x="229.68385254938687" y="517.0"/>
      <point x="218.74562367561634" y="533.0"/>
      <point x="188.74562367561634" y="533.0" type="curve" smooth="yes"/>
      <point x="186.74562367561634" y="533.0"/>
      <point x="185.49176298022698" y="532.0"/>
      <point x="182.9840415894483" y="530.0" type="curve"/>
      <point x="63.66951475645861" y="60.0" type="line"/>
      <point x="48.69173372848756" y="1.0"/>
      <point x="63.89926607920482" y="-10.0"/>
      <point x="87.89926607920482" y="-10.0" type="curve"/>
      <point x="95.89926607920482" y="-10.0"/>
      <point x="103.15312677459414" y="-9.0"/>
    </contour>
    <contour>
      <point x="132.00434074877916" y="202.48073792729247" type="curve"/>
      <point x="237.13944655453065" y="399.1437873033098"/>
      <point x="325.3733043950081" y="490.28540423223006"/>
      <point x="410.94411285946825" y="490.28540423223006" type="curve" smooth="yes"/>
      <point x="437.3733043950081" y="490.28540423223006"/>
      <point x="452.84970157352143" y="486.28540423223006"/>
      <point x="465.32609875203474" y="478.28540423223006" type="curve"/>
      <point x="469.32609875203474" y="478.28540423223006" type="line"/>
      <point x="475.6115029842648" y="487.28540423223006"/>
      <point x="479.89690721649487" y="498.28540423223006"/>
      <point x="482.94411285946825" y="510.28540423223006" type="curve"/>
      <point x="488.27672273467175" y="530.0"/>
      <point x="472.56212696690176" y="540.0"/>
      <point x="426.56212696690176" y="540.0" type="curve" smooth="yes"/>
      <point x="423.5621269669018" y="540.0" type="line" smooth="yes"/>
      <point x="322.5621269669018" y="540.0"/>
      <point x="241.18448182311448" y="469.14161692892026"/>
      <point x="164.80900705371675" y="333.6673901247965" type="curve" smooth="yes"/>
      <point x="139.85838307107977" y="290.85838307107974"/>
      <point x="129.38415626695604" y="243.43136190992948"/>
    </contour>
  </outline>
</glyph>
<glyph name="ringacute" format="1">
  <outline>
    <component base="ringcomb"/>
    <component base="acutecomb.case" yOffset="7.0"/>
    <contour>
      <point x="0" y="537" type="move" name="_top"/>
    </contour>
  </outline>
</glyph>
<glyph name="y.italic" format="1">
  <advance width="600.0"/>
  <outline>
    <contour>
      <point x="154.51492132392838" y="526.0" type="curve"/>
      <point x="152.84970157352143" y="483.0"/>
      <point x="145.70808464460117" y="449.0"/>
      <point x="134.2810634834509" y="402.0" type="curve" smooth="yes"/>
      <point x="64.95713510580575" y="129.0" type="line"/>
      <point x="56.57731958762887" y="96.5236028214867"/>
      <point x="64.72110689093869" y="81.33260987520347"/>
      <point x="95.05371676614216" y="81.33260987520347" type="curve"/>
      <point x="143.66739012479653" y="238.28540423223006"/>
      <point x="157.33260987520347" y="289.28540423223006"/>
      <point x="183.23385784047747" y="391.0" type="curve" smooth="yes"/>
      <point x="184.7574606619642" y="396.0" type="line" smooth="yes"/>
      <point x="211.42051003798156" y="501.0"/>
      <point x="193.27672273467172" y="528.0"/>
      <point x="167.27672273467172" y="528.0" type="curve" smooth="yes"/>
      <point x="162.27672273467172" y="528.0"/>
      <point x="157.51492132392838" y="527.0"/>
    </contour>
    <contour>
      <point x="167.8648941942485" y="-11.0" type="curve" smooth="yes"/>
      <point x="250.7704829083017" y="-11.0"/>
      <point x="356.86272381985896" y="73.66739012479653"/>
      <point x="439.71676614215954" y="191.42919153553987" type="curve" smooth="yes"/>
      <point x="462.33478024959305" y="223.71459576776994"/>
      <point x="472.71459576776994" y="258.0"/>
      <point x="466.6180141074335" y="300.28540423223006" type="curve"/>
      <point x="384.33695062398266" y="167.28540423223006"/>
      <point x="264.9593054801953" y="36.71459576776994"/>
      <point x="168.62669560499188" y="36.71459576776994" type="curve" smooth="yes"/>
      <point x="116.3412913727618" y="36.71459576776994"/>
      <point x="98.48290830168204" y="73.66739012479653"/>
      <point x="109.76614215952253" y="153.71459576776994" type="curve"/>
      <point x="72.52794357026588" y="151.71459576776994"/>
      <point x="68.00434074877916" y="140.23819858925665"/>
      <point x="64.95713510580575" y="129.0" type="curve" smooth="yes"/>
      <point x="46.67390124796528" y="59.332609875203474"/>
      <point x="80.48507867607162" y="-11.0"/>
    </contour>
    <contour>
      <point x="431.4378730330982" y="0.0" type="curve" smooth="yes"/>
      <point x="560.1823114487249" y="508.0" type="line" smooth="yes"/>
      <point x="564.7531199131851" y="526.0"/>
      <point x="548.2767227346717" y="531.0"/>
      <point x="530.2767227346717" y="531.0" type="curve" smooth="yes"/>
      <point x="524.2767227346717" y="531.0"/>
      <point x="519.2767227346717" y="530.0"/>
      <point x="515.5149213239283" y="528.0" type="curve"/>
      <point x="381.4378730330982" y="0.0" type="line" smooth="yes"/>
      <point x="351.72761801410746" y="-118.0"/>
      <point x="324.3478024959305" y="-150.28540423223006"/>
      <point x="248.6353771025502" y="-202.28540423223006" type="curve"/>
      <point x="277.49376017362994" y="-238.28540423223006"/>
      <point x="398.680412371134" y="-130.0"/>
    </contour>
    <contour>
      <point x="164.6353771025502" y="-201.52360282148672" type="curve" smooth="yes"/>
      <point x="96.63537710255021" y="-201.52360282148672"/>
      <point x="65.44438415626696" y="-192.52360282148672"/>
      <point x="23.586001085187206" y="-162.0472056429734" type="curve"/>
      <point x="19.586001085187206" y="-162.0472056429734" type="line"/>
      <point x="15.538795442213797" y="-166.28540423223006"/>
      <point x="11.491589799240373" y="-173.76180141074335"/>
      <point x="9.967986977753668" y="-180.76180141074335" type="curve" smooth="yes"/>
      <point x="6.920781334780244" y="-194.76180141074335"/>
      <point x="9.920781334780258" y="-204.23819858925665"/>
      <point x="14.635377102550194" y="-211.23819858925665" type="curve" smooth="yes"/>
      <point x="30.30276722734672" y="-232.23819858925665"/>
      <point x="80.73195876288662" y="-250.0"/>
      <point x="151.5881714595768" y="-250.0" type="curve" smooth="yes"/>
      <point x="305.97015735214325" y="-250.0"/>
      <point x="385.729788388497" y="-182.37981551817688"/>
      <point x="431.4378730330982" y="0.0" type="curve" smooth="yes"/>
      <point x="432.96147585458493" y="5.238198589256648"/>
      <point x="408.8670645686381" y="16.476397178513295"/>
      <point x="406.8670645686381" y="16.476397178513295" type="curve"/>
      <point x="339.1117742810635" y="-177.5236028214867"/>
      <point x="247.6353771025502" y="-201.52360282148672"/>
    </contour>
  </outline>
</glyph>
